<?xml version="1.0" encoding="UTF-8" standalone="no"?>
<!-- Created with Inkscape (http://www.inkscape.org/) -->

<svg
   xmlns:dc="http://purl.org/dc/elements/1.1/"
   xmlns:cc="http://creativecommons.org/ns#"
   xmlns:rdf="http://www.w3.org/1999/02/22-rdf-syntax-ns#"
   xmlns:svg="http://www.w3.org/2000/svg"
   xmlns="http://www.w3.org/2000/svg"
   xmlns:sodipodi="http://sodipodi.sourceforge.net/DTD/sodipodi-0.dtd"
   xmlns:inkscape="http://www.inkscape.org/namespaces/inkscape"
   width="24"
   height="24"
   id="svg3396"
   version="1.1"
   inkscape:version="0.48.4 r9939"
   sodipodi:docname="avatar-default.svg">
  <defs
     id="defs3398" />
  <sodipodi:namedview
     id="base"
     pagecolor="#000000"
     bordercolor="#666666"
     borderopacity="1.0"
     inkscape:pageopacity="0.44313725"
     inkscape:pageshadow="2"
     inkscape:zoom="1"
     inkscape:cx="12"
     inkscape:cy="11.5"
     inkscape:current-layer="layer1"
     showgrid="false"
     inkscape:grid-bbox="true"
     inkscape:document-units="px"
     inkscape:window-width="1364"
     inkscape:window-height="700"
     inkscape:window-x="0"
     inkscape:window-y="28"
     inkscape:window-maximized="1"
     showguides="true"
     inkscape:guide-bbox="true"
     inkscape:snap-bbox="true"
     inkscape:bbox-paths="true"
     inkscape:bbox-nodes="true"
     inkscape:snap-bbox-edge-midpoints="true"
     inkscape:snap-bbox-midpoints="true">
    <inkscape:grid
       type="xygrid"
       id="grid3404"
       empspacing="4"
       visible="true"
       enabled="true"
       snapvisiblegridlinesonly="true"
       originy="3px"
       originx="3px" />
    <sodipodi:guide
       orientation="0,1"
       position="3,19"
       id="guide3489" />
    <sodipodi:guide
       orientation="0,1"
       position="3,3"
       id="guide3491" />
    <sodipodi:guide
       orientation="1,0"
       position="3,19"
       id="guide3495" />
    <sodipodi:guide
       orientation="1,0"
       position="19,19"
       id="guide3497" />
  </sodipodi:namedview>
  <metadata
     id="metadata3401">
    <rdf:RDF>
      <cc:Work
         rdf:about="">
        <dc:format>image/svg+xml</dc:format>
        <dc:type
           rdf:resource="http://purl.org/dc/dcmitype/StillImage" />
        <dc:title />
      </cc:Work>
    </rdf:RDF>
  </metadata>
  <g
     id="layer1"
     inkscape:label="Layer 1"
     inkscape:groupmode="layer"
     transform="translate(0,6)">
    <path
       id="path8976"
       d="M 12,0 C 9.79086,0 8,1.79086 8,4 8,6.20914 9.79086,8 12,8 14.20914,8 16,6.20914 16,4 16,1.79086 14.20914,0 12,0 z"
       style="opacity:0.2;color:#bebebe;fill:#000000;fill-opacity:1;fill-rule:nonzero;stroke:none;stroke-width:1;marker:none;visibility:visible;display:inline;overflow:visible;enable-background:accumulate"
       inkscape:connector-curvature="0"
       sodipodi:nodetypes="sssss" />
    <path
       sodipodi:nodetypes="sssss"
       inkscape:connector-curvature="0"
       style="color:#bebebe;fill:#ffffff;fill-opacity:1;fill-rule:nonzero;stroke:none;stroke-width:1;marker:none;visibility:visible;display:inline;overflow:visible;enable-background:accumulate"
       d="M 12,-1 C 9.79086,-1 8,0.79085998 8,3 8,5.20914 9.79086,7 12,7 14.20914,7 16,5.20914 16,3 16,0.79085998 14.20914,-1 12,-1 z"
       id="path4266" />
    <path
       style="opacity:0.2;fill:#000000;fill-opacity:1;fill-rule:evenodd;stroke:none;display:inline;enable-background:new"
       d="M 8.78125,7.78125 C 6.53259,8.9458 6,11.2929 6,14 l 12,0 C 18,11.2929 17.46741,8.9458 15.21875,7.78125 14.34416,8.52942 13.23393,9 12,9 10.76607,9 9.65584,8.52942 8.78125,7.78125 z"
       id="path8978"
       inkscape:connector-curvature="0"
       sodipodi:nodetypes="ccccsc" />
    <path
       sodipodi:nodetypes="ccccsc"
       inkscape:connector-curvature="0"
       id="path4268"
       d="M 8.78125,6.78125 C 6.53259,7.9458 6,10.2929 6,13 l 12,0 C 18,10.2929 17.46741,7.9458 15.21875,6.78125 14.34416,7.52942 13.23393,8 12,8 10.76607,8 9.65584,7.52942 8.78125,6.78125 z"
       style="fill:#ffffff;fill-opacity:1;fill-rule:evenodd;stroke:none;display:inline;enable-background:new" />
  </g>
</svg>
