<?xml version="1.0" encoding="UTF-8" standalone="no"?>
<!-- Created with Inkscape (http://www.inkscape.org/) -->

<svg
   xmlns:osb="http://www.openswatchbook.org/uri/2009/osb"
   xmlns:dc="http://purl.org/dc/elements/1.1/"
   xmlns:cc="http://creativecommons.org/ns#"
   xmlns:rdf="http://www.w3.org/1999/02/22-rdf-syntax-ns#"
   xmlns:svg="http://www.w3.org/2000/svg"
   xmlns="http://www.w3.org/2000/svg"
   xmlns:sodipodi="http://sodipodi.sourceforge.net/DTD/sodipodi-0.dtd"
   xmlns:inkscape="http://www.inkscape.org/namespaces/inkscape"
   sodipodi:docname="bluetooth-active.svg"
   inkscape:export-filename="/home/sam/img/source-symbolic.png"
   inkscape:export-xdpi="270"
   inkscape:export-ydpi="270"
   height="24"
   id="svg7384"
   style="enable-background:new"
   version="1.1"
   inkscape:version="0.48.4 r9939"
   width="24">
  <sodipodi:namedview
     inkscape:bbox-nodes="true"
     inkscape:bbox-paths="true"
     bordercolor="#666666"
     borderlayer="false"
     borderopacity="1"
     inkscape:current-layer="layer9"
     inkscape:cx="19.034151"
     inkscape:cy="7.2732166"
     gridtolerance="10"
     inkscape:guide-bbox="true"
     guidetolerance="10"
     id="namedview88"
     inkscape:object-nodes="true"
     inkscape:object-paths="true"
     objecttolerance="10"
     pagecolor="#333333"
     inkscape:pageopacity="1"
     inkscape:pageshadow="2"
     showborder="true"
     showgrid="false"
     showguides="true"
     inkscape:showpageshadow="true"
     inkscape:snap-bbox="true"
     inkscape:snap-bbox-edge-midpoints="false"
     inkscape:snap-bbox-midpoints="false"
     inkscape:snap-center="false"
     inkscape:snap-global="true"
     inkscape:snap-grids="true"
     inkscape:snap-intersection-paths="true"
     inkscape:snap-midpoints="true"
     inkscape:snap-nodes="true"
     inkscape:snap-object-midpoints="true"
     inkscape:snap-others="true"
     inkscape:snap-page="false"
     inkscape:snap-smooth-nodes="true"
     inkscape:snap-to-guides="true"
     inkscape:window-height="700"
     inkscape:window-maximized="1"
     inkscape:window-width="1364"
     inkscape:window-x="0"
     inkscape:window-y="28"
     inkscape:zoom="11.313708">
    <inkscape:grid
       color="#000000"
       dotted="false"
       empcolor="#0800ff"
       empopacity="0.4627451"
       empspacing="4"
       enabled="true"
       id="grid4866"
       opacity="0.16470588"
       originx="-15.999988px"
       originy="-562px"
       snapvisiblegridlinesonly="true"
       spacingx="0.25px"
       spacingy="0.25px"
       type="xygrid"
       visible="true" />
  </sodipodi:namedview>
  <metadata
     id="metadata90">
    <rdf:RDF>
      <cc:Work
         rdf:about="">
        <dc:format>image/svg+xml</dc:format>
        <dc:type
           rdf:resource="http://purl.org/dc/dcmitype/StillImage" />
        <dc:title>Moka Symbolic Icon Theme</dc:title>
      </cc:Work>
    </rdf:RDF>
  </metadata>
  <title
     id="title8473">Moka Symbolic Icon Theme</title>
  <defs
     id="defs7386">
    <linearGradient
       id="linearGradient5606"
       osb:paint="solid">
      <stop
         id="stop5608"
         offset="0"
         style="stop-color:#000000;stop-opacity:1;" />
    </linearGradient>
    <filter
       inkscape:collect="always"
       color-interpolation-filters="sRGB"
       id="filter7554">
      <feBlend
         inkscape:collect="always"
         id="feBlend7556"
         in2="BackgroundImage"
         mode="darken" />
    </filter>
  </defs>
  <g
     inkscape:groupmode="layer"
     id="layer9"
     inkscape:label="status"
     style="display:inline"
     transform="translate(-257.00019,351)">
    <path
       id="path3781"
       d="m 268.65644,-345 a 0.750075,0.750075 0 0 0 -0.0937,0.0312 l -0.5625,0 0,0.5 0,0.125 a 0.750075,0.750075 0 0 0 0,0.21875 l 0,4.78125 -1.78125,-1.46875 a 0.750075,0.750075 0 0 0 -0.5625,-0.1875 0.750075,0.750075 0 0 0 -0.15625,0.0312 l -0.5,0 0,0.53125 a 0.750075,0.750075 0 0 0 0,0.21875 0.750075,0.750075 0 0 0 0.28125,0.5625 l 2.03125,1.65625 -2.03125,1.6875 a 0.750075,0.750075 0 0 0 -0.28125,1 l 0,0.34375 0.46875,0 a 0.750075,0.750075 0 0 0 0.75,-0.1875 l 1.78125,-1.46875 0,4.625 a 0.750075,0.750075 0 0 0 0,0.71875 l 0,0.3125 0.34375,0 a 0.750075,0.750075 0 0 0 0.90625,-0.21875 l 0.75,-0.6875 0,-1.125 0,-0.90625 -1,0.9375 0,-3.65625 2,1.59375 c 0.0117,-0.56202 0.18725,-1.08021 0.46875,-1.53125 l -1.78125,-1.4375 3.03125,-2.40625 a 0.750075,0.750075 0 0 0 0.0312,-1.125 l -3.5,-3.25 A 0.750075,0.750075 0 0 0 268.71894,-345 a 0.750075,0.750075 0 0 0 -0.0625,0 z m 0.34375,2 2.125,1.96875 -2.125,1.6875 0,-3.65625 z m 5,6 c -1.108,0 -2,0.91085 -2,2.03125 l 0,0.96875 -1,0 0,1 0,2 0,1 1,0 4,0 1,0 0,-1 0,-2 0,-1 -1,0 0,-0.96875 c 0,-1.1199 -0.892,-2.03125 -2,-2.03125 z m 0,1 c 0.554,0 1,0.4424 1,1 l 0,1 -2,0 0,-1 c 0,-0.5576 0.446,-1 1,-1 z"
       style="opacity:0.2;color:#bebebe;fill:#000000;fill-opacity:1;fill-rule:nonzero;stroke:none;stroke-width:2;marker:none;visibility:visible;display:inline;overflow:visible;enable-background:accumulate"
       inkscape:connector-curvature="0" />
    <path
       style="color:#bebebe;fill:#ffffff;fill-opacity:1;fill-rule:nonzero;stroke:none;stroke-width:2;marker:none;visibility:visible;display:inline;overflow:visible;enable-background:accumulate"
       d="M 11.65625 5 A 0.750075 0.750075 0 0 0 11.5625 5.03125 L 11 5.03125 L 11 5.53125 L 11 5.65625 A 0.750075 0.750075 0 0 0 11 5.875 L 11 10.65625 L 9.21875 9.1875 A 0.750075 0.750075 0 0 0 8.65625 9 A 0.750075 0.750075 0 0 0 8.5 9.03125 L 8 9.03125 L 8 9.5625 A 0.750075 0.750075 0 0 0 8 9.78125 A 0.750075 0.750075 0 0 0 8.28125 10.34375 L 10.3125 12 L 8.28125 13.6875 A 0.750075 0.750075 0 0 0 8 14.6875 L 8 15.03125 L 8.46875 15.03125 A 0.750075 0.750075 0 0 0 9.21875 14.84375 L 11 13.375 L 11 18 A 0.750075 0.750075 0 0 0 11 18.71875 L 11 19.03125 L 11.34375 19.03125 A 0.750075 0.750075 0 0 0 12.25 18.8125 L 13 18.125 L 13 17 L 13 16.09375 L 12 17.03125 L 12 13.375 L 14 14.96875 C 14.011661 14.406727 14.187246 13.888536 14.46875 13.4375 L 12.6875 12 L 15.71875 9.59375 A 0.750075 0.750075 0 0 0 15.75 8.46875 L 12.25 5.21875 A 0.750075 0.750075 0 0 0 11.71875 5 A 0.750075 0.750075 0 0 0 11.65625 5 z M 12 7 L 14.125 8.96875 L 12 10.65625 L 12 7 z M 17 13 C 15.892 13 15 13.91085 15 15.03125 L 15 16 L 14 16 L 14 17 L 14 19 L 14 20 L 15 20 L 19 20 L 20 20 L 20 19 L 20 17 L 20 16 L 19 16 L 19 15.03125 C 19 13.91135 18.108 13 17 13 z M 17 14 C 17.554 14 18 14.4424 18 15 L 18 16 L 16 16 L 16 15 C 16 14.4424 16.446 14 17 14 z "
       transform="translate(257.00019,-351)"
       id="rect8730" />
  </g>
  <g
     inkscape:groupmode="layer"
     id="layer10"
     inkscape:label="devices"
     style="display:inline;filter:url(#filter7554)"
     transform="translate(-257.00019,351)" />
  <g
     inkscape:groupmode="layer"
     id="layer1"
     inkscape:label="places"
     style="display:inline"
     transform="translate(-15.999988,-266)" />
  <g
     inkscape:groupmode="layer"
     id="layer14"
     inkscape:label="mimetypes"
     style="display:inline"
     transform="translate(-257.00019,351)" />
  <g
     inkscape:groupmode="layer"
     id="layer15"
     inkscape:label="emblems"
     style="display:inline"
     transform="translate(-257.00019,351)" />
  <g
     inkscape:groupmode="layer"
     id="g71291"
     inkscape:label="emotes"
     style="display:inline"
     transform="translate(-257.00019,351)" />
  <g
     inkscape:groupmode="layer"
     id="layer2"
     inkscape:label="categories"
     style="display:inline"
     transform="translate(-15.999988,-116)" />
  <g
     inkscape:groupmode="layer"
     id="g6058"
     inkscape:label="apps"
     style="display:inline"
     transform="translate(-15.999988,-116)" />
  <g
     inkscape:groupmode="layer"
     id="layer12"
     inkscape:label="actions"
     style="display:inline"
     transform="translate(-257.00019,351)" />
</svg>
