<?xml version="1.0" encoding="UTF-8" standalone="no"?>
<!-- Created with Inkscape (http://www.inkscape.org/) -->

<svg
   xmlns:osb="http://www.openswatchbook.org/uri/2009/osb"
   xmlns:dc="http://purl.org/dc/elements/1.1/"
   xmlns:cc="http://creativecommons.org/ns#"
   xmlns:rdf="http://www.w3.org/1999/02/22-rdf-syntax-ns#"
   xmlns:svg="http://www.w3.org/2000/svg"
   xmlns="http://www.w3.org/2000/svg"
   xmlns:sodipodi="http://sodipodi.sourceforge.net/DTD/sodipodi-0.dtd"
   xmlns:inkscape="http://www.inkscape.org/namespaces/inkscape"
   sodipodi:docname="bluetooth.svg"
   inkscape:export-filename="/home/sam/img/source-symbolic.png"
   inkscape:export-xdpi="270"
   inkscape:export-ydpi="270"
   height="24"
   id="svg7384"
   style="enable-background:new"
   version="1.1"
   inkscape:version="0.48.4 r9939"
   width="24">
  <sodipodi:namedview
     inkscape:bbox-nodes="true"
     inkscape:bbox-paths="true"
     bordercolor="#666666"
     borderlayer="false"
     borderopacity="1"
     inkscape:current-layer="layer9"
     inkscape:cx="13.835661"
     inkscape:cy="16.291498"
     gridtolerance="10"
     inkscape:guide-bbox="true"
     guidetolerance="10"
     id="namedview88"
     inkscape:object-nodes="true"
     inkscape:object-paths="true"
     objecttolerance="10"
     pagecolor="#333333"
     inkscape:pageopacity="1"
     inkscape:pageshadow="2"
     showborder="true"
     showgrid="false"
     showguides="true"
     inkscape:showpageshadow="true"
     inkscape:snap-bbox="true"
     inkscape:snap-bbox-edge-midpoints="false"
     inkscape:snap-bbox-midpoints="false"
     inkscape:snap-center="false"
     inkscape:snap-global="true"
     inkscape:snap-grids="true"
     inkscape:snap-intersection-paths="true"
     inkscape:snap-midpoints="true"
     inkscape:snap-nodes="true"
     inkscape:snap-object-midpoints="true"
     inkscape:snap-others="true"
     inkscape:snap-page="false"
     inkscape:snap-smooth-nodes="true"
     inkscape:snap-to-guides="true"
     inkscape:window-height="700"
     inkscape:window-maximized="1"
     inkscape:window-width="1364"
     inkscape:window-x="0"
     inkscape:window-y="28"
     inkscape:zoom="1">
    <inkscape:grid
       color="#000000"
       dotted="false"
       empcolor="#0800ff"
       empopacity="0.4627451"
       empspacing="4"
       enabled="true"
       id="grid4866"
       opacity="0.16470588"
       originx="-15.999988px"
       originy="-562px"
       snapvisiblegridlinesonly="true"
       spacingx="0.25px"
       spacingy="0.25px"
       type="xygrid"
       visible="true" />
  </sodipodi:namedview>
  <metadata
     id="metadata90">
    <rdf:RDF>
      <cc:Work
         rdf:about="">
        <dc:format>image/svg+xml</dc:format>
        <dc:type
           rdf:resource="http://purl.org/dc/dcmitype/StillImage" />
        <dc:title>Moka Symbolic Icon Theme</dc:title>
      </cc:Work>
    </rdf:RDF>
  </metadata>
  <title
     id="title8473">Moka Symbolic Icon Theme</title>
  <defs
     id="defs7386">
    <linearGradient
       id="linearGradient5606"
       osb:paint="solid">
      <stop
         id="stop5608"
         offset="0"
         style="stop-color:#000000;stop-opacity:1;" />
    </linearGradient>
    <filter
       inkscape:collect="always"
       color-interpolation-filters="sRGB"
       id="filter7554">
      <feBlend
         inkscape:collect="always"
         id="feBlend7556"
         in2="BackgroundImage"
         mode="darken" />
    </filter>
  </defs>
  <g
     inkscape:groupmode="layer"
     id="layer9"
     inkscape:label="status"
     style="display:inline"
     transform="translate(-257.00019,351)">
    <path
       id="path3830"
       d="m 267.65644,-345.99971 a 0.750075,0.750075 0 0 0 -0.0937,0.0312 l -0.5625,0 0,0.5 0,0.125 a 0.750075,0.750075 0 0 0 0,0.21875 l 0,4.78125 -1.78125,-1.46875 a 0.750075,0.750075 0 0 0 -0.5625,-0.1875 0.750075,0.750075 0 0 0 -0.15625,0.0312 l -0.5,0 0,0.53125 a 0.750075,0.750075 0 0 0 0,0.21875 0.750075,0.750075 0 0 0 0.28125,0.5625 l 2.03125,1.65625 -2.03125,1.6875 a 0.750075,0.750075 0 0 0 -0.28125,1 l 0,0.34375 0.46875,0 a 0.750075,0.750075 0 0 0 0.75,-0.1875 l 1.78125,-1.46875 0,4.625 a 0.750075,0.750075 0 0 0 0,0.71875 l 0,0.3125 0.34375,0 a 0.750075,0.750075 0 0 0 0.90625,-0.21875 l 3.5,-3.25 a 0.750075,0.750075 0 0 0 -0.0312,-1.125 l -3.03125,-2.4375 3.03125,-2.40625 a 0.750075,0.750075 0 0 0 0.0312,-1.125 l -3.5,-3.25 a 0.750075,0.750075 0 0 0 -0.53125,-0.21875 0.750075,0.750075 0 0 0 -0.0625,0 z m 0.34375,2 2.125,1.96875 -2.125,1.6875 0,-3.65625 z m 0,6.375 2.125,1.6875 -2.125,1.96875 0,-3.65625 z"
       style="opacity:0.2;color:#bebebe;fill:#000000;fill-opacity:1;fill-rule:nonzero;stroke:none;stroke-width:2;marker:none;visibility:visible;display:inline;overflow:visible;enable-background:accumulate"
       inkscape:connector-curvature="0" />
    <path
       style="color:#bebebe;fill:#ffffff;fill-opacity:1;fill-rule:nonzero;stroke:none;stroke-width:2;marker:none;visibility:visible;display:inline;overflow:visible;enable-background:accumulate"
       d="M 10.65625 4 A 0.750075 0.750075 0 0 0 10.5625 4.03125 L 10 4.03125 L 10 4.53125 L 10 4.65625 A 0.750075 0.750075 0 0 0 10 4.875 L 10 9.65625 L 8.21875 8.1875 A 0.750075 0.750075 0 0 0 7.65625 8 A 0.750075 0.750075 0 0 0 7.5 8.03125 L 7 8.03125 L 7 8.5625 A 0.750075 0.750075 0 0 0 7 8.78125 A 0.750075 0.750075 0 0 0 7.28125 9.34375 L 9.3125 11 L 7.28125 12.6875 A 0.750075 0.750075 0 0 0 7 13.6875 L 7 14.03125 L 7.46875 14.03125 A 0.750075 0.750075 0 0 0 8.21875 13.84375 L 10 12.375 L 10 17 A 0.750075 0.750075 0 0 0 10 17.71875 L 10 18.03125 L 10.34375 18.03125 A 0.750075 0.750075 0 0 0 11.25 17.8125 L 14.75 14.5625 A 0.750075 0.750075 0 0 0 14.71875 13.4375 L 11.6875 11 L 14.71875 8.59375 A 0.750075 0.750075 0 0 0 14.75 7.46875 L 11.25 4.21875 A 0.750075 0.750075 0 0 0 10.71875 4 A 0.750075 0.750075 0 0 0 10.65625 4 z M 11 6 L 13.125 7.96875 L 11 9.65625 L 11 6 z M 11 12.375 L 13.125 14.0625 L 11 16.03125 L 11 12.375 z "
       transform="translate(257.00019,-351)"
       id="rect8730" />
  </g>
  <g
     inkscape:groupmode="layer"
     id="layer10"
     inkscape:label="devices"
     style="display:inline;filter:url(#filter7554)"
     transform="translate(-257.00019,351)" />
  <g
     inkscape:groupmode="layer"
     id="layer1"
     inkscape:label="places"
     style="display:inline"
     transform="translate(-15.999988,-266)" />
  <g
     inkscape:groupmode="layer"
     id="layer14"
     inkscape:label="mimetypes"
     style="display:inline"
     transform="translate(-257.00019,351)" />
  <g
     inkscape:groupmode="layer"
     id="layer15"
     inkscape:label="emblems"
     style="display:inline"
     transform="translate(-257.00019,351)" />
  <g
     inkscape:groupmode="layer"
     id="g71291"
     inkscape:label="emotes"
     style="display:inline"
     transform="translate(-257.00019,351)" />
  <g
     inkscape:groupmode="layer"
     id="layer2"
     inkscape:label="categories"
     style="display:inline"
     transform="translate(-15.999988,-116)" />
  <g
     inkscape:groupmode="layer"
     id="g6058"
     inkscape:label="apps"
     style="display:inline"
     transform="translate(-15.999988,-116)" />
  <g
     inkscape:groupmode="layer"
     id="layer12"
     inkscape:label="actions"
     style="display:inline"
     transform="translate(-257.00019,351)" />
</svg>
