<?xml version="1.0" encoding="UTF-8" standalone="no"?>
<!-- Created with Inkscape (http://www.inkscape.org/) -->

<svg
   xmlns:dc="http://purl.org/dc/elements/1.1/"
   xmlns:cc="http://creativecommons.org/ns#"
   xmlns:rdf="http://www.w3.org/1999/02/22-rdf-syntax-ns#"
   xmlns:svg="http://www.w3.org/2000/svg"
   xmlns="http://www.w3.org/2000/svg"
   xmlns:sodipodi="http://sodipodi.sourceforge.net/DTD/sodipodi-0.dtd"
   xmlns:inkscape="http://www.inkscape.org/namespaces/inkscape"
   width="24"
   height="24"
   id="svg3396"
   version="1.1"
   inkscape:version="0.48.4 r9939"
   sodipodi:docname="indicator-virtualbox.svg">
  <defs
     id="defs3398" />
  <sodipodi:namedview
     id="base"
     pagecolor="#000000"
     bordercolor="#666666"
     borderopacity="1.0"
     inkscape:pageopacity="0.63137255"
     inkscape:pageshadow="2"
     inkscape:zoom="1"
     inkscape:cx="11"
     inkscape:cy="10"
     inkscape:current-layer="layer1"
     showgrid="false"
     inkscape:grid-bbox="true"
     inkscape:document-units="px"
     inkscape:window-width="1364"
     inkscape:window-height="700"
     inkscape:window-x="0"
     inkscape:window-y="28"
     inkscape:window-maximized="1"
     showguides="true"
     inkscape:guide-bbox="true"
     inkscape:snap-bbox="true"
     inkscape:bbox-nodes="true"
     inkscape:bbox-paths="true"
     inkscape:snap-bbox-edge-midpoints="true"
     inkscape:snap-bbox-midpoints="true">
    <inkscape:grid
       type="xygrid"
       id="grid3404"
       empspacing="4"
       visible="true"
       enabled="true"
       snapvisiblegridlinesonly="true"
       originy="3px"
       originx="3px" />
    <sodipodi:guide
       orientation="0,1"
       position="3,19"
       id="guide3489" />
    <sodipodi:guide
       orientation="0,1"
       position="3,3"
       id="guide3491" />
    <sodipodi:guide
       orientation="1,0"
       position="3,19"
       id="guide3495" />
    <sodipodi:guide
       orientation="1,0"
       position="19,19"
       id="guide3497" />
  </sodipodi:namedview>
  <metadata
     id="metadata3401">
    <rdf:RDF>
      <cc:Work
         rdf:about="">
        <dc:format>image/svg+xml</dc:format>
        <dc:type
           rdf:resource="http://purl.org/dc/dcmitype/StillImage" />
        <dc:title></dc:title>
      </cc:Work>
    </rdf:RDF>
  </metadata>
  <g
     id="layer1"
     inkscape:label="Layer 1"
     inkscape:groupmode="layer"
     transform="translate(0,8)">
    <path
       inkscape:connector-curvature="0"
       id="path2996"
       d="m 6,-3 c 0,0 -2,0 -2,2 l 0,12 c 0,2 2,2 2,2 l 12,0 c 2,0 2,-2 2,-2 L 20,-1.03125 C 20,-1.03125 20,-3 18,-3 L 6,-3 z m 0,1 12,0 c 1,0 1,1 1,1 l 0,1 0,6 0,1 -0.625,0 -1.90625,-6.625 -0.4375,-1.5625 -0.5,1.53125 L 14,4.9375 12.46875,0.34375 12,-1.09375 l -0.46875,1.4375 -2.5,7.5 L 7.46875,2.375 7.37505,2 l -0.375,0 -2,0 0,-2 0,-1 c 0,0 0,-1 1,-1 z m 6,4.0625 1.53125,4.59375 0.46875,1.4375 0.46875,-1.4375 1.5,-4.5 1.5625,5.46875 0.0937,0.375 0.375,0 1,0 0,2 0,1 c 0,1 -1,1 -1,1 l -12,0 c 0,0 -1,0 -1,-1 l 0,-1 0,-6 0,-1 1.625,0 1.90625,6.625 0.4375,1.5625 0.5,-1.53125 L 12,2.0625 z"
       style="opacity:0.2;fill:#000000;fill-opacity:1;fill-rule:nonzero;stroke:none;display:inline;enable-background:new" />
    <path
       style="fill:#ffffff;fill-opacity:1;fill-rule:nonzero;stroke:none;display:inline;enable-background:new"
       d="m 6,-4 c 0,0 -2,0 -2,2 l 0,12 c 0,2 2,2 2,2 l 12,0 c 2,0 2,-2 2,-2 L 20,-2.03125 C 20,-2.03125 20,-4 18,-4 L 6,-4 z m 0,1 12,0 c 1,0 1,1 1,1 l 0,1 0,6 0,1 -0.625,0 -1.90625,-6.625 -0.4375,-1.5625 -0.5,1.53125 L 14,3.9375 12.46875,-0.65625 12,-2.09375 l -0.46875,1.4375 -2.5,7.5 L 7.46875,1.375 7.37505,1 l -0.375,0 -2,0 0,-2 0,-1 c 0,0 0,-1 1,-1 z m 6,4.0625 1.53125,4.59375 0.46875,1.4375 0.46875,-1.4375 1.5,-4.5 1.5625,5.46875 0.0937,0.375 0.375,0 1,0 0,2 0,1 c 0,1 -1,1 -1,1 l -12,0 c 0,0 -1,0 -1,-1 l 0,-1 0,-6 0,-1 1.625,0 1.90625,6.625 0.4375,1.5625 0.5,-1.53125 L 12,1.0625 z"
       id="path4054"
       inkscape:connector-curvature="0" />
  </g>
</svg>
