<?xml version="1.0" encoding="UTF-8" standalone="no"?>
<!-- Created with Inkscape (http://www.inkscape.org/) -->

<svg
   xmlns:dc="http://purl.org/dc/elements/1.1/"
   xmlns:cc="http://creativecommons.org/ns#"
   xmlns:rdf="http://www.w3.org/1999/02/22-rdf-syntax-ns#"
   xmlns:svg="http://www.w3.org/2000/svg"
   xmlns="http://www.w3.org/2000/svg"
   xmlns:sodipodi="http://sodipodi.sourceforge.net/DTD/sodipodi-0.dtd"
   xmlns:inkscape="http://www.inkscape.org/namespaces/inkscape"
   width="24"
   height="24"
   id="svg3396"
   version="1.1"
   inkscape:version="0.48.4 r9939"
   sodipodi:docname="indicator-messages.svg">
  <defs
     id="defs3398" />
  <sodipodi:namedview
     id="base"
     pagecolor="#000000"
     bordercolor="#666666"
     borderopacity="1.0"
     inkscape:pageopacity="0.44313725"
     inkscape:pageshadow="2"
     inkscape:zoom="1"
     inkscape:cx="32.316779"
     inkscape:cy="11.709655"
     inkscape:current-layer="layer1"
     showgrid="true"
     inkscape:grid-bbox="true"
     inkscape:document-units="px"
     inkscape:window-width="1364"
     inkscape:window-height="700"
     inkscape:window-x="0"
     inkscape:window-y="28"
     inkscape:window-maximized="1"
     showguides="true"
     inkscape:guide-bbox="true"
     inkscape:snap-bbox="true"
     inkscape:bbox-paths="true"
     inkscape:bbox-nodes="true"
     inkscape:snap-bbox-edge-midpoints="true"
     inkscape:snap-bbox-midpoints="true">
    <inkscape:grid
       type="xygrid"
       id="grid3404"
       empspacing="4"
       visible="true"
       enabled="true"
       snapvisiblegridlinesonly="true"
       originy="3px"
       originx="3px" />
    <sodipodi:guide
       orientation="0,1"
       position="3,19"
       id="guide3489" />
    <sodipodi:guide
       orientation="0,1"
       position="3,3"
       id="guide3491" />
    <sodipodi:guide
       orientation="1,0"
       position="3,19"
       id="guide3495" />
    <sodipodi:guide
       orientation="1,0"
       position="19,19"
       id="guide3497" />
  </sodipodi:namedview>
  <metadata
     id="metadata3401">
    <rdf:RDF>
      <cc:Work
         rdf:about="">
        <dc:format>image/svg+xml</dc:format>
        <dc:type
           rdf:resource="http://purl.org/dc/dcmitype/StillImage" />
        <dc:title />
      </cc:Work>
    </rdf:RDF>
  </metadata>
  <g
     id="layer1"
     inkscape:label="Layer 1"
     inkscape:groupmode="layer"
     transform="translate(0,6)">
    <path
       id="path8962"
       d="m 12,0 c -0.554,0 -1,0.446 -1,1 0,0.0109 -3.4e-4,0.0205 0,0.0312 C 9.27201,1.47932 8,3 8,5 8,7.00524 8.00069,11 6.21875,11 6.10004,11 6,11.1115 6,11.25 l 0,0.75 2,0 2,0 4,0 2,0 2,0 0,-0.75 C 18,11.1115 17.89996,11 17.78125,11 15.99234,11 16,7.00488 16,5 16,3 14.72799,1.47932 13,1.03125 c 3.4e-4,-0.0108 0,-0.0205 0,-0.0312 0,-0.554 -0.446,-1 -1,-1 z m -1.71875,13 c 0.34604,0.5969 0.97915,1 1.71875,1 0.7396,0 1.37271,-0.4031 1.71875,-1 l -3.4375,0 z"
       style="opacity:0.2;color:#000000;fill:#000000;fill-opacity:1;fill-rule:nonzero;stroke:none;stroke-width:4;marker:none;visibility:visible;display:inline;overflow:visible;enable-background:accumulate"
       inkscape:connector-curvature="0" />
    <path
       inkscape:connector-curvature="0"
       style="color:#000000;fill:#ffffff;fill-opacity:1;fill-rule:nonzero;stroke:none;stroke-width:4;marker:none;visibility:visible;display:inline;overflow:visible;enable-background:accumulate"
       d="m 12,-1 c -0.554,0 -1,0.446 -1,1 0,0.0109 -3.4e-4,0.0205 0,0.0312 C 9.27201,0.47932 8,2 8,4 8,6.00524 8.00069,10 6.21875,10 6.10004,10 6,10.1115 6,10.25 l 0,0.75 2,0 2,0 4,0 2,0 2,0 0,-0.75 C 18,10.1115 17.89996,10 17.78125,10 15.99234,10 16,6.00488 16,4 16,2 14.72799,0.47932 13,0.03125 c 3.4e-4,-0.0108 0,-0.0205 0,-0.0312 0,-0.554 -0.446,-1 -1,-1 z m -1.71875,13 c 0.34604,0.5969 0.97915,1 1.71875,1 0.7396,0 1.37271,-0.4031 1.71875,-1 l -3.4375,0 z"
       id="path4178" />
  </g>
</svg>
