<?xml version="1.0" encoding="UTF-8" standalone="no"?>
<!-- Created with Inkscape (http://www.inkscape.org/) -->

<svg
   xmlns:dc="http://purl.org/dc/elements/1.1/"
   xmlns:cc="http://creativecommons.org/ns#"
   xmlns:rdf="http://www.w3.org/1999/02/22-rdf-syntax-ns#"
   xmlns:svg="http://www.w3.org/2000/svg"
   xmlns="http://www.w3.org/2000/svg"
   xmlns:sodipodi="http://sodipodi.sourceforge.net/DTD/sodipodi-0.dtd"
   xmlns:inkscape="http://www.inkscape.org/namespaces/inkscape"
   width="24"
   height="24"
   id="svg3396"
   version="1.1"
   inkscape:version="0.48.4 r9939"
   sodipodi:docname="indicator-messages-red.svg">
  <defs
     id="defs3398" />
  <sodipodi:namedview
     id="base"
     pagecolor="#000000"
     bordercolor="#666666"
     borderopacity="1.0"
     inkscape:pageopacity="0.44313725"
     inkscape:pageshadow="2"
     inkscape:zoom="1"
     inkscape:cx="8.8959794"
     inkscape:cy="9.0205634"
     inkscape:current-layer="layer1"
     showgrid="false"
     inkscape:grid-bbox="true"
     inkscape:document-units="px"
     inkscape:window-width="1364"
     inkscape:window-height="700"
     inkscape:window-x="0"
     inkscape:window-y="28"
     inkscape:window-maximized="1"
     showguides="true"
     inkscape:guide-bbox="true"
     inkscape:snap-bbox="true"
     inkscape:bbox-paths="true"
     inkscape:bbox-nodes="true"
     inkscape:snap-bbox-edge-midpoints="true"
     inkscape:snap-bbox-midpoints="true">
    <inkscape:grid
       type="xygrid"
       id="grid3404"
       empspacing="4"
       visible="true"
       enabled="true"
       snapvisiblegridlinesonly="true"
       originy="3px"
       originx="3px" />
    <sodipodi:guide
       orientation="0,1"
       position="3,19"
       id="guide3489" />
    <sodipodi:guide
       orientation="0,1"
       position="3,3"
       id="guide3491" />
    <sodipodi:guide
       orientation="1,0"
       position="3,19"
       id="guide3495" />
    <sodipodi:guide
       orientation="1,0"
       position="19,19"
       id="guide3497" />
  </sodipodi:namedview>
  <metadata
     id="metadata3401">
    <rdf:RDF>
      <cc:Work
         rdf:about="">
        <dc:format>image/svg+xml</dc:format>
        <dc:type
           rdf:resource="http://purl.org/dc/dcmitype/StillImage" />
        <dc:title />
      </cc:Work>
    </rdf:RDF>
  </metadata>
  <g
     id="layer1"
     inkscape:label="Layer 1"
     inkscape:groupmode="layer"
     transform="translate(0,6)">
    <path
       class="link"
       sodipodi:type="arc"
       style="opacity:0.2;color:#000000;fill:#000000;fill-opacity:1;fill-rule:nonzero;stroke:none;stroke-width:2;marker:none;visibility:visible;display:inline;overflow:visible;enable-background:new"
       id="path8968"
       sodipodi:cx="53"
       sodipodi:cy="218"
       sodipodi:rx="3"
       sodipodi:ry="3"
       d="m 56,218 a 3,3 0 1 1 -6,0 3,3 0 1 1 6,0 z"
       transform="matrix(-1,0,0,1,61,-207)" />
    <path
       inkscape:connector-curvature="0"
       id="path8966"
       d="m 10,0.375 c 0.38928,0.0194 0.73289,0.26582 0.875,0.65625 0.004,0.0103 0.0276,0.0211 0.0312,0.0312 1.77703,-0.16996 3.47221,0.80812 4.15625,2.6875 0.68583,1.88431 2.07552,5.6407097 3.75,5.03125 0.11155,-0.0406 0.23388,0.0262 0.28125,0.15625 l 0.25,0.7187497 -1.875,0.6874993 -1.875,0.65625 -3.75,1.375 -0.125,0.0312 c 0.16513,-0.43832 0.28125,-0.90998 0.28125,-1.40615 C 11.99995,8.79086 10.20909,7 7.99995,7 7.91485,7 7.83369,7.026 7.74995,7.0312 7.68925,6.86217 7.61644,6.64828 7.56245,6.49995 6.88141,4.62879 7.54265,2.73374 8.99995,1.7187 8.81047,1.19811 9.07315,0.62693 9.5937,0.43745 9.72385,0.39005 9.87019,0.36845 9.99995,0.37495 z m 5.65625,11.687499 c -0.12102,0.67925 -0.555,1.24704 -1.25,1.5 -0.695,0.25296 -1.43942,0.0988 -1.96875,-0.34375 l 3.21875,-1.15625 z"
       style="opacity:0.2;color:#000000;fill:#000000;fill-opacity:1;fill-rule:nonzero;stroke:none;stroke-width:4;marker:none;visibility:visible;display:inline;overflow:visible;enable-background:accumulate" />
    <path
       style="font-size:medium;font-style:normal;font-variant:normal;font-weight:normal;font-stretch:normal;text-indent:0;text-align:start;text-decoration:none;line-height:normal;letter-spacing:normal;word-spacing:normal;text-transform:none;direction:ltr;block-progression:tb;writing-mode:lr-tb;text-anchor:start;baseline-shift:baseline;opacity:0.25;color:#000000;fill:#ffffff;fill-opacity:1;fill-rule:nonzero;stroke:none;stroke-width:4;marker:none;visibility:visible;display:inline;overflow:visible;enable-background:accumulate;font-family:Sans;-inkscape-font-specification:Sans"
       d="m 16.59375,1.21875 c 0.14553,0.26442 0.26797,0.54969 0.375,0.84375 0.25724,0.70678 0.60122,1.62747 0.96875,2.40625 L 17.03125,4.9375 C 16.62245,4.09133 16.25991,3.12036 16,2.40625 15.9033,2.1407 15.78699,1.89231 15.65625,1.65625 c -0.004,-0.008 0.004,-0.0237 0,-0.0312 L 16.59375,1.2188 z M 6.625,5.84375 C 6.6644,5.95215 6.7073,6.10059 6.75,6.21875 6.43303,6.32304 6.12018,6.44915 5.84375,6.625 5.80435,6.51381 5.75635,6.38519 5.71875,6.28125 L 6.625,5.84375 z"
       id="path4184"
       inkscape:connector-curvature="0" />
    <path
       style="color:#000000;fill:#ffffff;fill-opacity:1;fill-rule:nonzero;stroke:none;stroke-width:4;marker:none;visibility:visible;display:inline;overflow:visible;enable-background:accumulate"
       d="m 10,-0.625 c 0.38928,0.0194 0.73289,0.26582 0.875,0.65625 0.004,0.0103 0.0276,0.0211 0.0312,0.0312 1.77703,-0.1699601 3.47221,0.80812 4.15625,2.6875 0.68583,1.88431 2.07552,5.64071 3.75,5.03125 0.11155,-0.0406 0.23388,0.0262 0.28125,0.15625 l 0.25,0.71875 -1.875,0.6875 -1.875,0.6562492 -3.75,1.3749998 -0.125,0.0312 c 0.16513,-0.43832 0.28125,-0.90998 0.28125,-1.4061498 C 11.99995,7.79086 10.20909,6 7.99995,6 7.91485,6 7.83369,6.026 7.74995,6.0312 7.68925,5.86217 7.61644,5.64828 7.56245,5.49995 6.88141,3.62879 7.54265,1.73374 8.99995,0.7187 8.81047,0.19811 9.07315,-0.37307 9.5937,-0.56255 c 0.13015,-0.0474 0.27649,-0.069 0.40625,-0.0625 z m 5.65625,11.687499 c -0.12102,0.67925 -0.555,1.24704 -1.25,1.5 -0.695,0.25296 -1.43942,0.0988 -1.96875,-0.34375 l 3.21875,-1.15625 z"
       id="path4188"
       inkscape:connector-curvature="0" />
    <path
       transform="matrix(-1,0,0,1,61,-208)"
       d="m 56,218 a 3,3 0 1 1 -6,0 3,3 0 1 1 6,0 z"
       sodipodi:ry="3"
       sodipodi:rx="3"
       sodipodi:cy="218"
       sodipodi:cx="53"
       id="path4190"
       style="color:#000000;fill:#e13f2b;fill-opacity:1;fill-rule:nonzero;stroke:none;stroke-width:2;marker:none;visibility:visible;display:inline;overflow:visible;enable-background:new"
       sodipodi:type="arc"
       class="link" />
  </g>
</svg>
