<?xml version="1.0" encoding="UTF-8" standalone="no"?>
<!-- Created with Inkscape (http://www.inkscape.org/) -->

<svg
   xmlns:dc="http://purl.org/dc/elements/1.1/"
   xmlns:cc="http://creativecommons.org/ns#"
   xmlns:rdf="http://www.w3.org/1999/02/22-rdf-syntax-ns#"
   xmlns:svg="http://www.w3.org/2000/svg"
   xmlns="http://www.w3.org/2000/svg"
   xmlns:sodipodi="http://sodipodi.sourceforge.net/DTD/sodipodi-0.dtd"
   xmlns:inkscape="http://www.inkscape.org/namespaces/inkscape"
   width="24"
   height="24"
   id="svg3396"
   version="1.1"
   inkscape:version="0.48.4 r9939"
   sodipodi:docname="transmission-tray-icon.svg">
  <defs
     id="defs3398" />
  <sodipodi:namedview
     id="base"
     pagecolor="#000000"
     bordercolor="#666666"
     borderopacity="1.0"
     inkscape:pageopacity="0.63137255"
     inkscape:pageshadow="2"
     inkscape:zoom="1"
     inkscape:cx="11"
     inkscape:cy="9.5034667"
     inkscape:current-layer="layer1"
     showgrid="false"
     inkscape:grid-bbox="true"
     inkscape:document-units="px"
     inkscape:window-width="1364"
     inkscape:window-height="700"
     inkscape:window-x="0"
     inkscape:window-y="28"
     inkscape:window-maximized="1"
     showguides="true"
     inkscape:guide-bbox="true">
    <inkscape:grid
       type="xygrid"
       id="grid3404"
       empspacing="4"
       visible="true"
       enabled="true"
       snapvisiblegridlinesonly="true"
       originy="3px"
       originx="3px" />
    <sodipodi:guide
       orientation="0,1"
       position="3,19"
       id="guide3489" />
    <sodipodi:guide
       orientation="0,1"
       position="3,3"
       id="guide3491" />
    <sodipodi:guide
       orientation="1,0"
       position="3,19"
       id="guide3495" />
    <sodipodi:guide
       orientation="1,0"
       position="19,19"
       id="guide3497" />
  </sodipodi:namedview>
  <metadata
     id="metadata3401">
    <rdf:RDF>
      <cc:Work
         rdf:about="">
        <dc:format>image/svg+xml</dc:format>
        <dc:type
           rdf:resource="http://purl.org/dc/dcmitype/StillImage" />
        <dc:title></dc:title>
      </cc:Work>
    </rdf:RDF>
  </metadata>
  <g
     id="layer1"
     inkscape:label="Layer 1"
     inkscape:groupmode="layer"
     transform="translate(0,8.0000004)">
    <path
       style="font-size:medium;font-style:normal;font-variant:normal;font-weight:normal;font-stretch:normal;text-indent:0;text-align:start;text-decoration:none;line-height:normal;letter-spacing:normal;word-spacing:normal;text-transform:none;direction:ltr;block-progression:tb;writing-mode:lr-tb;text-anchor:start;baseline-shift:baseline;opacity:0.2;color:#000000;fill:#000000;fill-opacity:1;fill-rule:nonzero;stroke:none;stroke-width:2;marker:none;visibility:visible;display:inline;overflow:visible;enable-background:accumulate;font-family:Sans;-inkscape-font-specification:Sans"
       d="M 16.15625,-1 C 16.4375,-0.9531 17,-0.75 17,0 l 0,3e-7 c 0,0 0,1 -1,1 l -3,0 L 13,4 11,3.9999997 11,1 8,1 C 8,1 7,1 7,0 l 0,-3e-7 c 0,-1 1,-1 1,-1 L 16,-1 c 0,0 0.0625,-0.0156 0.15625,0 z M 11,3.9999997 11,7 9,7 l 3,3 3,-2.9999997 -2,0 L 13,4 16,4 c 0,0 0.87762,0.0183 1,0.875 l 1,6 L 18,12 17,12 7,12 6,12 6,10.875 7,4.8749997 c 0.0573,-0.92495 1,-0.875 1,-0.875 z"
       id="path2991"
       inkscape:connector-curvature="0"
       sodipodi:nodetypes="cscscccccssccccccccccccccccccccc" />
    <path
       style="font-size:medium;font-style:normal;font-variant:normal;font-weight:normal;font-stretch:normal;text-indent:0;text-align:start;text-decoration:none;line-height:normal;letter-spacing:normal;word-spacing:normal;text-transform:none;direction:ltr;block-progression:tb;writing-mode:lr-tb;text-anchor:start;baseline-shift:baseline;color:#000000;fill:#ffffff;fill-opacity:1;fill-rule:nonzero;stroke:none;stroke-width:2;marker:none;visibility:visible;display:inline;overflow:visible;enable-background:accumulate;font-family:Sans;-inkscape-font-specification:Sans"
       d="M 16.15625,-2 C 16.4375,-1.9531 17,-1.75 17,-1 l 0,3e-7 c 0,0 0,1 -1,1 l -3,0 L 13,3 11,2.9999997 11,0 8,0 C 8,0 7,0 7,-1 l 0,-3e-7 c 0,-1 1,-1 1,-1 L 16,-2 c 0,0 0.0625,-0.0156 0.15625,0 z M 11,2.9999997 11,6 9,6 l 3,3 3,-2.9999997 -2,0 L 13,3 16,3 c 0,0 0.87762,0.0183 1,0.875 l 1,6 L 18,11 17,11 7,11 6,11 6,9.875 7,3.8749997 c 0.0573,-0.92495 1,-0.875 1,-0.875 z"
       id="path3775-3"
       inkscape:connector-curvature="0"
       sodipodi:nodetypes="cscscccccssccccccccccccccccccccc" />
  </g>
</svg>
