<?xml version="1.0" encoding="UTF-8" standalone="no"?>
<!-- Created with Inkscape (http://www.inkscape.org/) -->

<svg
   xmlns:dc="http://purl.org/dc/elements/1.1/"
   xmlns:cc="http://creativecommons.org/ns#"
   xmlns:rdf="http://www.w3.org/1999/02/22-rdf-syntax-ns#"
   xmlns:svg="http://www.w3.org/2000/svg"
   xmlns="http://www.w3.org/2000/svg"
   xmlns:sodipodi="http://sodipodi.sourceforge.net/DTD/sodipodi-0.dtd"
   xmlns:inkscape="http://www.inkscape.org/namespaces/inkscape"
   width="24"
   height="24"
   id="svg3396"
   version="1.1"
   inkscape:version="0.48.4 r9939"
   sodipodi:docname="dropbox-status-busy2.svg">
  <defs
     id="defs3398" />
  <sodipodi:namedview
     id="base"
     pagecolor="#000000"
     bordercolor="#666666"
     borderopacity="1.0"
     inkscape:pageopacity="0.63137255"
     inkscape:pageshadow="2"
     inkscape:zoom="1"
     inkscape:cx="21.546068"
     inkscape:cy="9.7007707"
     inkscape:current-layer="layer1"
     showgrid="true"
     inkscape:grid-bbox="true"
     inkscape:document-units="px"
     inkscape:window-width="1364"
     inkscape:window-height="700"
     inkscape:window-x="0"
     inkscape:window-y="28"
     inkscape:window-maximized="1"
     showguides="true"
     inkscape:guide-bbox="true">
    <inkscape:grid
       type="xygrid"
       id="grid3404"
       empspacing="4"
       visible="true"
       enabled="true"
       snapvisiblegridlinesonly="true"
       originy="3px"
       originx="3px" />
    <sodipodi:guide
       orientation="0,1"
       position="3,19"
       id="guide3489" />
    <sodipodi:guide
       orientation="0,1"
       position="3,3"
       id="guide3491" />
    <sodipodi:guide
       orientation="1,0"
       position="3,19"
       id="guide3495" />
    <sodipodi:guide
       orientation="1,0"
       position="19,19"
       id="guide3497" />
  </sodipodi:namedview>
  <metadata
     id="metadata3401">
    <rdf:RDF>
      <cc:Work
         rdf:about="">
        <dc:format>image/svg+xml</dc:format>
        <dc:type
           rdf:resource="http://purl.org/dc/dcmitype/StillImage" />
        <dc:title></dc:title>
      </cc:Work>
    </rdf:RDF>
  </metadata>
  <g
     id="layer1"
     inkscape:label="Layer 1"
     inkscape:groupmode="layer"
     transform="translate(0,8)">
    <path
       inkscape:connector-curvature="0"
       id="path4026"
       d="m 17.15625,-2.9999997 c 0.28125,0.0469 0.84375,0.25 0.84375,1 l 0,1 c 0,0 0,1.00000003 -1,1.00000003 l -3,0 0,1.99999997 -4,0 0,-1.99999997 -3,0 c 0,0 -1,0 -1,-1.00000003 l 0,-1 c 0,-1 1,-1 1,-1 l 10,0 c 0,0 0.0625,-0.0156 0.15625,0 z m -7.15625,5 0,4 -2,0 L 12,10 l 4,-3.9999997 -2,0 0,-4 3,0 c 0,0 0.87762,0.0183 1,0.875 L 19,10.875 19,12 18,12 6,12 5,12 5,10.875 6,2.8750003 c 0.0573,-0.92495 1,-0.875 1,-0.875 l 3,0 z"
       style="font-size:medium;font-style:normal;font-variant:normal;font-weight:normal;font-stretch:normal;text-indent:0;text-align:start;text-decoration:none;line-height:normal;letter-spacing:normal;word-spacing:normal;text-transform:none;direction:ltr;block-progression:tb;writing-mode:lr-tb;text-anchor:start;baseline-shift:baseline;opacity:0.2;color:#000000;fill:#000000;fill-opacity:1;fill-rule:nonzero;stroke:none;stroke-width:2;marker:none;visibility:visible;display:inline;overflow:visible;enable-background:accumulate;font-family:Sans;-inkscape-font-specification:Sans" />
    <path
       style="font-size:medium;font-style:normal;font-variant:normal;font-weight:normal;font-stretch:normal;text-indent:0;text-align:start;text-decoration:none;line-height:normal;letter-spacing:normal;word-spacing:normal;text-transform:none;direction:ltr;block-progression:tb;writing-mode:lr-tb;text-anchor:start;baseline-shift:baseline;color:#000000;fill:#ffffff;fill-opacity:1;fill-rule:nonzero;stroke:none;stroke-width:2;marker:none;visibility:visible;display:inline;overflow:visible;enable-background:accumulate;font-family:Sans;-inkscape-font-specification:Sans"
       d="m 17.15625,-3.9999997 c 0.28125,0.0469 0.84375,0.25 0.84375,1 l 0,1 c 0,0 0,1.00000003 -1,1.00000003 l -3,0 0,1.99999997 -4,0 0,-1.99999997 -3,0 c 0,0 -1,0 -1,-1.00000003 l 0,-1 c 0,-1 1,-1 1,-1 l 10,0 c 0,0 0.0625,-0.0156 0.15625,0 z m -7.15625,5 0,4 -2,0 L 12,9 l 4,-3.9999997 -2,0 0,-4 3,0 c 0,0 0.87762,0.0183 1,0.875 L 19,9.875 19,11 18,11 6,11 5,11 5,9.875 6,1.8750003 c 0.0573,-0.92494997 1,-0.875 1,-0.875 l 3,0 z"
       id="path3775-3"
       inkscape:connector-curvature="0" />
  </g>
</svg>
