<?xml version="1.0" encoding="UTF-8" standalone="no"?>
<!-- Created with Inkscape (http://www.inkscape.org/) -->

<svg
   xmlns:dc="http://purl.org/dc/elements/1.1/"
   xmlns:cc="http://creativecommons.org/ns#"
   xmlns:rdf="http://www.w3.org/1999/02/22-rdf-syntax-ns#"
   xmlns:svg="http://www.w3.org/2000/svg"
   xmlns="http://www.w3.org/2000/svg"
   xmlns:sodipodi="http://sodipodi.sourceforge.net/DTD/sodipodi-0.dtd"
   xmlns:inkscape="http://www.inkscape.org/namespaces/inkscape"
   width="24"
   height="24"
   id="svg3396"
   version="1.1"
   inkscape:version="0.48.4 r9939"
   sodipodi:docname="steam_tray_mono.svg">
  <defs
     id="defs3398" />
  <sodipodi:namedview
     id="base"
     pagecolor="#000000"
     bordercolor="#666666"
     borderopacity="1.0"
     inkscape:pageopacity="0.63137255"
     inkscape:pageshadow="2"
     inkscape:zoom="1"
     inkscape:cx="11.415999"
     inkscape:cy="12.853098"
     inkscape:current-layer="layer1"
     showgrid="false"
     inkscape:grid-bbox="true"
     inkscape:document-units="px"
     inkscape:window-width="1364"
     inkscape:window-height="700"
     inkscape:window-x="0"
     inkscape:window-y="28"
     inkscape:window-maximized="1"
     showguides="true"
     inkscape:guide-bbox="true"
     inkscape:snap-bbox="true"
     inkscape:bbox-nodes="true"
     inkscape:bbox-paths="true"
     inkscape:snap-bbox-edge-midpoints="true"
     inkscape:snap-bbox-midpoints="true">
    <inkscape:grid
       type="xygrid"
       id="grid3404"
       empspacing="4"
       visible="true"
       enabled="true"
       snapvisiblegridlinesonly="true"
       originy="3px"
       originx="3px" />
    <sodipodi:guide
       orientation="0,1"
       position="3,19"
       id="guide3489" />
    <sodipodi:guide
       orientation="0,1"
       position="3,3"
       id="guide3491" />
    <sodipodi:guide
       orientation="1,0"
       position="3,19"
       id="guide3495" />
    <sodipodi:guide
       orientation="1,0"
       position="19,19"
       id="guide3497" />
  </sodipodi:namedview>
  <metadata
     id="metadata3401">
    <rdf:RDF>
      <cc:Work
         rdf:about="">
        <dc:format>image/svg+xml</dc:format>
        <dc:type
           rdf:resource="http://purl.org/dc/dcmitype/StillImage" />
        <dc:title></dc:title>
      </cc:Work>
    </rdf:RDF>
  </metadata>
  <g
     id="layer1"
     inkscape:label="Layer 1"
     inkscape:groupmode="layer"
     transform="translate(0,8)">
    <path
       style="color:#bebebe;fill:#000000;fill-opacity:1;fill-rule:nonzero;stroke:none;stroke-width:1;marker:none;visibility:visible;display:inline;overflow:visible;enable-background:accumulate;opacity:0.2"
       d="m 5,-1.99995 c -1,0 -1,1 -1,1 l 0,8.9375 0,2.71875 c 0.21549,0.23277 0.54729,0.35699 0.875,0.3125 C 4.9195,10.9748 4.9538,11 5,11 l 14,0 c 0.554,0 1,-0.446 1,-1 l 0,-11 c 0,-0.554 -0.446,-1 -1,-1 l -2.90625,0 -1.0625,0 z m 0,1 10.40625,0 1.0625,0 2.53125,0 0,7 0,1.09375 0,1.90625 -4.5625,0 -9.4375,0 0,-0.15625 z m 8,1 c -0.55228,0 -1,0.44772 -1,1 0,0.55228 0.44772,1 1,1 0.55228,0 1,-0.44772 1,-1 0,-0.55228 -0.44772,-1 -1,-1 z m -4,3 c -1.5,0 -3,2 -3,4.53125 l 0,0.46875 12,0 0,0 c 0,0 -1,-4 -2.5,-4 -1.5,0 -1.5,2 -2.5,2 -1,0 -2.5,-3 -4,-3 z"
       id="path4082"
       inkscape:connector-curvature="0"
       sodipodi:nodetypes="sccccsssssccscccccccccccsssssssccssss" />
    <path
       sodipodi:nodetypes="sccccsssssccscccccccccccsssssssccssss"
       inkscape:connector-curvature="0"
       id="path3133"
       d="m 5,-2.99995 c -1,0 -1,1 -1,1 L 4,6.93755 4,9.6563 C 4.21549,9.88907 4.54729,10.01329 4.875,9.9688 4.9195,9.9748 4.9538,10 5,10 l 14,0 c 0.554,0 1,-0.446 1,-1 l 0,-11 c 0,-0.554 -0.446,-1 -1,-1 l -2.90625,0 -1.0625,0 z m 0,1 10.40625,0 1.0625,0 2.53125,0 0,7 0,1.09375 0,1.90625 -4.5625,0 -9.4375,0 0,-0.15625 z m 8,1 c -0.55228,0 -1,0.44772 -1,1 0,0.55228 0.44772,1 1,1 0.55228,0 1,-0.44772 1,-1 0,-0.55228 -0.44772,-1 -1,-1 z m -4,3 c -1.5,0 -3,2 -3,4.53125 l 0,0.46875 12,0 0,0 c 0,0 -1,-4 -2.5,-4 -1.5,0 -1.5,2 -2.5,2 -1,0 -2.5,-3 -4,-3 z"
       style="color:#bebebe;fill:#ffffff;fill-opacity:1;fill-rule:nonzero;stroke:none;stroke-width:1;marker:none;visibility:visible;display:inline;overflow:visible;enable-background:accumulate" />
  </g>
</svg>
