<?xml version="1.0" encoding="UTF-8" standalone="no"?>
<!-- Created with Inkscape (http://www.inkscape.org/) -->

<svg
   xmlns:dc="http://purl.org/dc/elements/1.1/"
   xmlns:cc="http://creativecommons.org/ns#"
   xmlns:rdf="http://www.w3.org/1999/02/22-rdf-syntax-ns#"
   xmlns:svg="http://www.w3.org/2000/svg"
   xmlns="http://www.w3.org/2000/svg"
   xmlns:xlink="http://www.w3.org/1999/xlink"
   xmlns:sodipodi="http://sodipodi.sourceforge.net/DTD/sodipodi-0.dtd"
   xmlns:inkscape="http://www.inkscape.org/namespaces/inkscape"
   version="1.1"
   width="16"
   height="16"
   id="svg3942"
   inkscape:version="0.48.4 r9939"
   sodipodi:docname="input-keyboard.svg">
  <sodipodi:namedview
     pagecolor="#ffffff"
     bordercolor="#666666"
     borderopacity="1"
     objecttolerance="10"
     gridtolerance="10"
     guidetolerance="10"
     inkscape:pageopacity="0"
     inkscape:pageshadow="2"
     inkscape:window-width="1364"
     inkscape:window-height="700"
     id="namedview11"
     showgrid="false"
     inkscape:zoom="1"
     inkscape:cx="11"
     inkscape:cy="11"
     inkscape:window-x="0"
     inkscape:window-y="28"
     inkscape:window-maximized="1"
     inkscape:current-layer="svg3942">
    <inkscape:grid
       type="xygrid"
       id="grid3758"
       empspacing="5"
       visible="true"
       enabled="true"
       snapvisiblegridlinesonly="true" />
  </sodipodi:namedview>
  <defs
     id="defs3944">
    <linearGradient
       x1="107.94199"
       y1="11.285784"
       x2="107.94199"
       y2="34.752571"
       id="linearGradient3839-1"
       xlink:href="#linearGradient3678-3"
       gradientUnits="userSpaceOnUse"
       gradientTransform="matrix(0.4342346,0,0,0.5947449,-34.566178,-8.7462096)" />
    <linearGradient
       id="linearGradient3678-3">
      <stop
         id="stop3680-5"
         style="stop-color:#ffffff;stop-opacity:1"
         offset="0" />
      <stop
         id="stop3682-5"
         style="stop-color:#e6e6e6;stop-opacity:1"
         offset="1" />
    </linearGradient>
    <linearGradient
       x1="107.94199"
       y1="11.285784"
       x2="107.94199"
       y2="34.752571"
       id="linearGradient2990"
       xlink:href="#linearGradient3678-3"
       gradientUnits="userSpaceOnUse"
       gradientTransform="matrix(0.4342346,0,0,0.5947449,-34.566178,-2.7462096)" />
  </defs>
  <metadata
     id="metadata3947">
    <rdf:RDF>
      <cc:Work
         rdf:about="">
        <dc:format>image/svg+xml</dc:format>
        <dc:type
           rdf:resource="http://purl.org/dc/dcmitype/StillImage" />
        <dc:title></dc:title>
      </cc:Work>
    </rdf:RDF>
  </metadata>
  <path
     d="M 3,1 C 1.892,1 1,1.892 1,3 l 0,10 c 0,1.108 0.892,2 2,2 l 10,0 c 1.108,0 2,-0.892 2,-2 L 15,3 C 15,1.892 14.108,1 13,1 z m 0,1 10,0 c 0.554,0 1,0.446 1,1 l 0,9 c 0,0.554 -0.446,1 -1,1 L 3,13 C 2.446,13 2,12.554 2,12 L 2,3 C 2,2.446 2.446,2 3,2 z m 7,1 -1,2 1,0 2,-2 z M 9.65625,5.994125 c -0.790271,5.8e-6 -1.548983,0.2569935 -2.28125,0.75 L 7.75,7.59375 C 8.061756,7.383499 8.366241,7.233757 8.65625,7.125 8.953505,7.009002 9.22674,6.9687549 9.53125,6.96875 9.980758,6.9687549 10.323241,7.073249 10.5625,7.3125 10.801752,7.54451 11,7.860744 11,8.28125 l 0,0.3065 C 10.789741,8.508 10.479753,8.443754 10.21875,8.40025 9.95774,8.3495 9.705754,8.33775 9.4375,8.33775 c -0.355261,3e-6 -0.671495,0.038 -0.96875,0.125 -0.290009,0.087 -0.563746,0.215499 -0.78125,0.375 -0.210256,0.159507 -0.352748,0.344997 -0.46875,0.5625 -0.116003,0.217508 -0.1875,0.550245 -0.1875,0.8185 0,0.253758 0.062,0.501246 0.15625,0.71875 0.101502,0.217506 0.208245,0.402997 0.375,0.5625 0.174003,0.159504 0.392993,0.280748 0.625,0.375 C 8.426754,11.962 8.693241,12 8.96875,12 c 0.427758,0 0.817738,-0.076 1.1875,-0.25 0.377005,-0.181254 0.68374,-0.447741 0.9375,-0.78125 L 11.125,11.3125 c 0.029,0.181255 0.102743,0.328748 0.21875,0.4375 0.123248,0.108753 0.299239,0.173 0.53125,0.1875 0.07975,0 0.186992,0.0073 0.28125,0 0.101497,-0.0073 0.196492,-0.0095 0.3125,-0.03125 l 0,-1.03125 C 12.345491,10.8678 12.165567,10.83925 12.114821,10.78125 12.064061,10.72325 12,10.606505 12,10.46875 L 12,8.337875 C 12,7.591111 11.90376,7.01789 11.46875,6.619125 11.033735,6.2203708 10.439265,5.9941308 9.65625,5.994125 z m -0.09004,3.07023 c 0.217502,3e-6 0.607864,0.05025 0.832623,0.09375 C 10.630834,9.201605 10.796991,9.264 11,9.34375 l 0,0.75 c -4e-6,0.145005 -0.129,0.306998 -0.28125,0.4375 -0.426996,0.37916 -0.940912,0.429426 -1.4375,0.468753 -0.32626,1e-6 -0.734527,0.01755 -0.94478,-0.170948 C 8.126213,10.633301 7.999999,10.407761 8,10.125003 7.999999,9.820498 8.294242,9.55626 8.5625,9.375003 8.838005,9.186501 9.138446,9.064361 9.566209,9.064355 z"
     inkscape:connector-curvature="0"
     id="rect2989"
     style="color:#000000;fill:#444444;fill-opacity:1;fill-rule:nonzero;stroke:none;stroke-width:1;marker:none;visibility:visible;display:inline;overflow:visible;enable-background:accumulate" />
</svg>
