<?xml version="1.0" encoding="UTF-8" standalone="no"?>
<!-- Created with Inkscape (http://www.inkscape.org/) -->

<svg
   xmlns:dc="http://purl.org/dc/elements/1.1/"
   xmlns:cc="http://creativecommons.org/ns#"
   xmlns:rdf="http://www.w3.org/1999/02/22-rdf-syntax-ns#"
   xmlns:svg="http://www.w3.org/2000/svg"
   xmlns="http://www.w3.org/2000/svg"
   xmlns:sodipodi="http://sodipodi.sourceforge.net/DTD/sodipodi-0.dtd"
   xmlns:inkscape="http://www.inkscape.org/namespaces/inkscape"
   width="16"
   height="16"
   id="svg3396"
   version="1.1"
   inkscape:version="0.48.4 r9939"
   sodipodi:docname="dropbox-status-busy.svg">
  <defs
     id="defs3398" />
  <sodipodi:namedview
     id="base"
     pagecolor="#000000"
     bordercolor="#666666"
     borderopacity="1.0"
     inkscape:pageopacity="0.63137255"
     inkscape:pageshadow="2"
     inkscape:zoom="2.8284271"
     inkscape:cx="13.602473"
     inkscape:cy="7.4648869"
     inkscape:current-layer="layer1"
     showgrid="true"
     inkscape:grid-bbox="true"
     inkscape:document-units="px"
     inkscape:window-width="1364"
     inkscape:window-height="700"
     inkscape:window-x="0"
     inkscape:window-y="28"
     inkscape:window-maximized="1"
     showguides="true"
     inkscape:guide-bbox="true">
    <inkscape:grid
       type="xygrid"
       id="grid3404"
       empspacing="4"
       visible="true"
       enabled="true"
       snapvisiblegridlinesonly="true"
       originy="3px"
       originx="3px" />
    <sodipodi:guide
       orientation="0,1"
       position="3,19"
       id="guide3489" />
    <sodipodi:guide
       orientation="0,1"
       position="3,3"
       id="guide3491" />
    <sodipodi:guide
       orientation="1,0"
       position="3,19"
       id="guide3495" />
    <sodipodi:guide
       orientation="1,0"
       position="19,19"
       id="guide3497" />
  </sodipodi:namedview>
  <metadata
     id="metadata3401">
    <rdf:RDF>
      <cc:Work
         rdf:about="">
        <dc:format>image/svg+xml</dc:format>
        <dc:type
           rdf:resource="http://purl.org/dc/dcmitype/StillImage" />
        <dc:title></dc:title>
      </cc:Work>
    </rdf:RDF>
  </metadata>
  <g
     id="layer1"
     inkscape:label="Layer 1"
     inkscape:groupmode="layer">
    <path
       id="path3894"
       d="M 4,0 0,3 4,6 0,9 8,15 16,9 12,6 12,7.5 12,8 9,8 9,7.59375 c -0.004,-0.0362 -0.004,-0.0574 0,-0.0937 2.5e-5,-0.26179 0.23821,-0.49998 0.5,-0.5 l 0.71875,0 c 0.268236,10e-5 0.415358,-0.005 0.53125,-0.0312 l -0.4375,0 C 9.9258,6.08634 9.027779,5.46885 8,5.46885 c -1.027779,0 -1.894551,0.61749 -2.28125,1.5 l -1.0625,0 c 0.434009,-1.43715 1.767146,-2.5 3.34375,-2.5 1.273261,0 2.389678,0.72627 3,1.75 L 11,5.5 C 10.9945,5.27095 11.151425,5.0501 11.375,5 c 0.02045,-0.007 0.04135,0.004 0.0625,0 0.0473,-0.001 0.11045,-0.0118 0.15625,0 L 12,5 12,5.40625 c 0.003,0.0311 0.003,0.0626 0,0.0937 l 0,0.5 4,-3 -4,-3 -4,3 -4,-3 z m 0,7.96875 3,0 0,0.40625 c 0.004,0.0362 0.004,0.0574 0,0.0937 -2.5e-5,0.26179 -0.23821,0.49997 -0.5,0.5 l -0.71875,0 c -0.02784,0 -0.0366,-3e-5 -0.0625,0 0.386699,0.8825 1.253471,1.5 2.28125,1.5 1.027779,0 1.9258,-0.61745 2.3125,-1.5 l 1.03125,0 c -0.43401,1.43714 -1.767147,2.5 -3.34375,2.5 -1.288719,0 -2.39471,-0.70577 -3,-1.75 l 0,0.75 c 0.0055,0.22905 -0.151425,0.4499 -0.375,0.5 -0.02045,0.006 -0.04135,0.0273 -0.0625,0.0312 -0.0473,10e-4 -0.11045,-0.0195 -0.15625,-0.0312 L 4,10.9687 4,10.56245 c -0.003,-0.0311 -0.003,-0.0626 0,-0.0937 l 0,-2 0,-0.5 z"
       style="color:#000000;fill:#444444;fill-opacity:1;fill-rule:nonzero;stroke:none;stroke-width:1;marker:none;visibility:visible;display:inline;overflow:visible;enable-background:accumulate"
       inkscape:connector-curvature="0" />
  </g>
</svg>
