<?xml version="1.0" encoding="UTF-8" standalone="no"?>
<!-- Created with Inkscape (http://www.inkscape.org/) -->

<svg
   xmlns:dc="http://purl.org/dc/elements/1.1/"
   xmlns:cc="http://creativecommons.org/ns#"
   xmlns:rdf="http://www.w3.org/1999/02/22-rdf-syntax-ns#"
   xmlns:svg="http://www.w3.org/2000/svg"
   xmlns="http://www.w3.org/2000/svg"
   xmlns:sodipodi="http://sodipodi.sourceforge.net/DTD/sodipodi-0.dtd"
   xmlns:inkscape="http://www.inkscape.org/namespaces/inkscape"
   width="16"
   height="16"
   id="svg3396"
   version="1.1"
   inkscape:version="0.48.4 r9939"
   sodipodi:docname="dropbox-status-busy.svg">
  <defs
     id="defs3398" />
  <sodipodi:namedview
     id="base"
     pagecolor="#000000"
     bordercolor="#666666"
     borderopacity="1.0"
     inkscape:pageopacity="0.63137255"
     inkscape:pageshadow="2"
     inkscape:zoom="2.8284271"
     inkscape:cx="13.602473"
     inkscape:cy="7.4648869"
     inkscape:current-layer="layer1"
     showgrid="true"
     inkscape:grid-bbox="true"
     inkscape:document-units="px"
     inkscape:window-width="1364"
     inkscape:window-height="700"
     inkscape:window-x="0"
     inkscape:window-y="28"
     inkscape:window-maximized="1"
     showguides="true"
     inkscape:guide-bbox="true">
    <inkscape:grid
       type="xygrid"
       id="grid3404"
       empspacing="4"
       visible="true"
       enabled="true"
       snapvisiblegridlinesonly="true"
       originy="3px"
       originx="3px" />
    <sodipodi:guide
       orientation="0,1"
       position="3,19"
       id="guide3489" />
    <sodipodi:guide
       orientation="0,1"
       position="3,3"
       id="guide3491" />
    <sodipodi:guide
       orientation="1,0"
       position="3,19"
       id="guide3495" />
    <sodipodi:guide
       orientation="1,0"
       position="19,19"
       id="guide3497" />
  </sodipodi:namedview>
  <metadata
     id="metadata3401">
    <rdf:RDF>
      <cc:Work
         rdf:about="">
        <dc:format>image/svg+xml</dc:format>
        <dc:type
           rdf:resource="http://purl.org/dc/dcmitype/StillImage" />
        <dc:title></dc:title>
      </cc:Work>
    </rdf:RDF>
  </metadata>
  <g
     id="layer1"
     inkscape:label="Layer 1"
     inkscape:groupmode="layer">
    <path
       inkscape:connector-curvature="0"
       style="color:#000000;fill:#444444;fill-opacity:1;fill-rule:nonzero;stroke:none;stroke-width:1;marker:none;visibility:visible;display:inline;overflow:visible;enable-background:accumulate"
       d="M 4,0 0,3 4,6 0,9 8,15 16,9 12,6 16,3 12,0 8,3 4,0 z m 1,4 0.40625,0 c 0.0311,-0.003 0.0627,-0.003 0.0937,0 l 2,0 0.5,0 0,3 L 7.5937,7 C 7.5575,7.004 7.5362,7.004 7.5,7 7.23821,6.99997 7.00003,6.76179 7,6.5 L 7,5.78125 c 0,-0.0278 3e-5,-0.0366 0,-0.0625 C 6.1175,6.10545 5.5,6.97222 5.5,8 5.5,9.02779 6.11745,9.92581 7,10.3125 l 0,1.03125 C 5.56286,10.90974 4.5,9.57661 4.5,8 4.5,6.71129 5.20577,5.60529 6.25,5 L 5.5,5 C 5.27095,5.006 5.0501,4.84857 5,4.625 4.993,4.6046 4.9728,4.5837 4.9688,4.5625 4.9678,4.5152 4.9883,4.45205 5,4.40625 L 5,4 z M 9,4.65625 C 10.43715,5.09026 11.5,6.4234 11.5,8 c 0,1.27326 -0.72627,2.38968 -1.75,3 l 0.71875,0 c 0.22905,-0.006 0.4499,0.15142 0.5,0.375 0.007,0.0204 -0.004,0.0413 0,0.0625 10e-4,0.0473 0.0118,0.11045 0,0.15625 l 0,0.40625 -0.40625,0 c -0.0311,0.003 -0.0627,0.003 -0.0937,0 l -2,0 -0.5,0 0,-3 0.40625,0 c 0.0362,-0.004 0.0575,-0.004 0.0937,0 0.26179,3e-5 0.49998,0.23822 0.5,0.5 l 0,0.71875 c -10e-5,0.26825 0.005,0.41536 0.0312,0.53125 l 0,-0.4375 c 0.88251,-0.38669 1.5,-1.28471 1.5,-2.3125 0,-1.02778 -0.61749,-1.89455 -1.5,-2.28125 l 0,-1.0625 z"
       id="path4329-9" />
  </g>
</svg>
