<?xml version="1.0" encoding="UTF-8" standalone="no"?>
<!-- Created with Inkscape (http://www.inkscape.org/) -->

<svg
   xmlns:dc="http://purl.org/dc/elements/1.1/"
   xmlns:cc="http://creativecommons.org/ns#"
   xmlns:rdf="http://www.w3.org/1999/02/22-rdf-syntax-ns#"
   xmlns:svg="http://www.w3.org/2000/svg"
   xmlns="http://www.w3.org/2000/svg"
   xmlns:sodipodi="http://sodipodi.sourceforge.net/DTD/sodipodi-0.dtd"
   xmlns:inkscape="http://www.inkscape.org/namespaces/inkscape"
   id="svg2"
   height="22"
   width="22"
   version="1.1"
   inkscape:version="0.48.4 r9939"
   sodipodi:docname="grive-app-ind.svg">
  <sodipodi:namedview
     pagecolor="#000000"
     bordercolor="#666666"
     borderopacity="1"
     objecttolerance="10"
     gridtolerance="10"
     guidetolerance="10"
     inkscape:pageopacity="0.60784314"
     inkscape:pageshadow="2"
     inkscape:window-width="1364"
     inkscape:window-height="700"
     id="namedview9"
     showgrid="false"
     inkscape:zoom="1"
     inkscape:cx="11"
     inkscape:cy="10.440043"
     inkscape:window-x="0"
     inkscape:window-y="28"
     inkscape:window-maximized="1"
     inkscape:current-layer="svg2">
    <inkscape:grid
       type="xygrid"
       id="grid2988"
       empspacing="5"
       visible="true"
       enabled="true"
       snapvisiblegridlinesonly="true" />
  </sodipodi:namedview>
  <defs
     id="defs4">
    <style
       id="style3072"
       type="text/css">.fil2 {fill:#11A861}
    .fil0 {fill:#3777E3}
    .fil1 {fill:#FFCF63}</style>
  </defs>
  <metadata
     id="metadata7">
    <rdf:RDF>
      <cc:Work
         rdf:about="">
        <dc:format>image/svg+xml</dc:format>
        <dc:type
           rdf:resource="http://purl.org/dc/dcmitype/StillImage" />
        <dc:title></dc:title>
      </cc:Work>
    </rdf:RDF>
  </metadata>
  <path
     inkscape:connector-curvature="0"
     style="opacity:0.2;color:#000000;fill:#000000;fill-opacity:1;fill-rule:nonzero;stroke:none;stroke-width:1;marker:none;visibility:visible;display:inline;overflow:visible;enable-background:new"
     d="m 18.302424,4.1250002 c -0.0741,0.0356 -0.13911,0.0898 -0.1875,0.15625 l -0.5,0.5 -0.15625,-0.15625 -6,5.9999998 0.15625,0.15625 -0.5,0.5 -0.0312,0.71875 0.71875,-0.0312 0.5,-0.5 0.15625,0.15625 6,-5.9999998 -0.15625,-0.15625 0.5,-0.5 c 0.29288,-0.29845 -0.0248,-0.91114 -0.4375,-0.84375 -0.0208,-10e-4 -0.0417,-10e-4 -0.0625,0 z m -14.2187498,1.875 c -0.554,0 -1,0.446 -1,1 l 0,8.9999998 c 0,0.554 0.446,1 1,1 l 11.9999998,0 c 0.554,0 1,-0.446 1,-1 l 0,-7.5624998 -3.90625,3.9062498 -0.71875,0.6875 -0.15625,-0.15625 -0.0625,0.0625 -0.40625,0.0312 -0.71875,0.0312 -1.0625,0.0312 0.0312,-1.0625 0.0312,-0.71875 0.0312,-0.40625 0.0625,-0.0625 -0.15625,-0.15625 0.6875,-0.7187498 3.90625,-3.90625 -10.5624998,0 z m -1,10.9999998 0,1 c 0,0.554 0.446,1 1,1 l 11.9999998,0 c 0.554,0 1,-0.446 1,-1 l 0,-1 c 0,0.554 -0.446,1 -1,1 L 4.0836742,18 c -0.554,0 -1,-0.446 -1,-1 z"
     id="path3764" />
  <path
     id="path4077"
     d="m 18.302424,3.1250002 c -0.0741,0.0356 -0.13911,0.0898 -0.1875,0.15625 l -0.5,0.5 -0.15625,-0.15625 -6,5.9999998 0.15625,0.15625 -0.5,0.5 -0.0312,0.71875 0.71875,-0.0312 0.5,-0.5 0.15625,0.15625 6,-5.9999998 -0.15625,-0.15625 0.5,-0.5 c 0.29288,-0.29845 -0.0248,-0.91114 -0.4375,-0.84375 -0.0208,-10e-4 -0.0417,-10e-4 -0.0625,0 z m -14.2187498,1.875 c -0.554,0 -1,0.446 -1,1 l 0,8.9999998 c 0,0.554 0.446,1 1,1 l 11.9999998,0 c 0.554,0 1,-0.446 1,-1 l 0,-7.5624998 -3.90625,3.9062498 -0.71875,0.6875 -0.15625,-0.15625 -0.0625,0.0625 -0.40625,0.0312 -0.71875,0.0312 -1.0625,0.0312 0.0312,-1.0625 0.0312,-0.71875 0.0312,-0.40625 0.0625,-0.0625 -0.15625,-0.15625 0.6875,-0.7187498 3.90625,-3.90625 -10.5624998,0 z m -1,10.9999998 0,1 c 0,0.554 0.446,1 1,1 l 11.9999998,0 c 0.554,0 1,-0.446 1,-1 l 0,-1 c 0,0.554 -0.446,1 -1,1 L 4.0836742,17 c -0.554,0 -1,-0.446 -1,-1 z"
     style="color:#000000;fill:#ffffff;fill-opacity:1;fill-rule:nonzero;stroke:none;stroke-width:1;marker:none;visibility:visible;display:inline;overflow:visible;enable-background:new"
     inkscape:connector-curvature="0" />
</svg>
