<?xml version="1.0" encoding="UTF-8" standalone="no"?>
<!-- Created with Inkscape (http://www.inkscape.org/) -->

<svg
   xmlns:dc="http://purl.org/dc/elements/1.1/"
   xmlns:cc="http://creativecommons.org/ns#"
   xmlns:rdf="http://www.w3.org/1999/02/22-rdf-syntax-ns#"
   xmlns:svg="http://www.w3.org/2000/svg"
   xmlns="http://www.w3.org/2000/svg"
   xmlns:sodipodi="http://sodipodi.sourceforge.net/DTD/sodipodi-0.dtd"
   xmlns:inkscape="http://www.inkscape.org/namespaces/inkscape"
   width="22"
   height="22"
   id="svg3396"
   version="1.1"
   inkscape:version="0.48.4 r9939"
   sodipodi:docname="caffeine-cup-empty.svg">
  <defs
     id="defs3398" />
  <sodipodi:namedview
     id="base"
     pagecolor="#000000"
     bordercolor="#666666"
     borderopacity="1.0"
     inkscape:pageopacity="0.63137255"
     inkscape:pageshadow="2"
     inkscape:zoom="1"
     inkscape:cx="10.895167"
     inkscape:cy="13.722985"
     inkscape:current-layer="layer1"
     showgrid="false"
     inkscape:grid-bbox="true"
     inkscape:document-units="px"
     inkscape:window-width="1364"
     inkscape:window-height="700"
     inkscape:window-x="0"
     inkscape:window-y="28"
     inkscape:window-maximized="1"
     showguides="true"
     inkscape:guide-bbox="true"
     inkscape:snap-bbox="true"
     inkscape:bbox-nodes="true"
     inkscape:bbox-paths="true"
     inkscape:snap-bbox-edge-midpoints="true"
     inkscape:snap-bbox-midpoints="true">
    <inkscape:grid
       type="xygrid"
       id="grid3404"
       empspacing="4"
       visible="true"
       enabled="true"
       snapvisiblegridlinesonly="true"
       originy="3px"
       originx="3px" />
    <sodipodi:guide
       orientation="0,1"
       position="3,19"
       id="guide3489" />
    <sodipodi:guide
       orientation="0,1"
       position="3,3"
       id="guide3491" />
    <sodipodi:guide
       orientation="1,0"
       position="3,19"
       id="guide3495" />
    <sodipodi:guide
       orientation="1,0"
       position="19,19"
       id="guide3497" />
  </sodipodi:namedview>
  <metadata
     id="metadata3401">
    <rdf:RDF>
      <cc:Work
         rdf:about="">
        <dc:format>image/svg+xml</dc:format>
        <dc:type
           rdf:resource="http://purl.org/dc/dcmitype/StillImage" />
        <dc:title />
      </cc:Work>
    </rdf:RDF>
  </metadata>
  <g
     id="layer1"
     inkscape:label="Layer 1"
     inkscape:groupmode="layer"
     transform="translate(0,6)">
    <g
       transform="translate(-169,-271)"
       id="g3772"
       style="opacity:0.2;fill:#000000;fill-opacity:1;display:inline;enable-background:new">
      <path
         sodipodi:nodetypes="scccscscccsccscccc"
         inkscape:connector-curvature="0"
         id="path3774"
         d="m 173,279 c 0,3 2,5 5,5 l 2,0 c 3,0 4.75982,-1.56569 4.95898,-4 l 0.54102,0 c 1.5,0 1.5,-1.5 1.5,-1.5 l 0,-1 c 0,-1.5 -1.5,-1.5 -1.5,-1.5 l -0.5,0 -12,0 z m 12.5,-2 c 0.5,-0.0323 0.51562,0.53125 0.51562,0.53125 l 0,1 C 186.01562,279 185.5,279 185.5,279 l -0.5,0 0.008,-1.98438 z"
         style="color:#000000;fill:#000000;fill-opacity:1;fill-rule:nonzero;stroke:none;stroke-width:1;marker:none;visibility:visible;display:inline;overflow:visible;enable-background:accumulate" />
    </g>
    <g
       style="fill:#ffffff;fill-opacity:1;display:inline;enable-background:new"
       id="g4272"
       transform="translate(-169,-272)">
      <path
         style="color:#000000;fill:#ffffff;fill-opacity:1;fill-rule:nonzero;stroke:none;stroke-width:1;marker:none;visibility:visible;display:inline;overflow:visible;enable-background:accumulate"
         d="m 173,279 c 0,3 2,5 5,5 l 2,0 c 3,0 4.75982,-1.56569 4.95898,-4 l 0.54102,0 c 1.5,0 1.5,-1.5 1.5,-1.5 l 0,-1 c 0,-1.5 -1.5,-1.5 -1.5,-1.5 l -0.5,0 -12,0 z m 12.5,-2 c 0.5,-0.0323 0.51562,0.53125 0.51562,0.53125 l 0,1 C 186.01562,279 185.5,279 185.5,279 l -0.5,0 0.008,-1.98438 z"
         id="path4274"
         inkscape:connector-curvature="0"
         sodipodi:nodetypes="scccscscccsccscccc" />
      <path
         inkscape:connector-curvature="0"
         style="opacity:0.35;color:#000000;fill:#ffffff;fill-opacity:1;fill-rule:nonzero;stroke:none;stroke-width:1;marker:none;visibility:visible;display:inline;overflow:visible;enable-background:accumulate"
         d="m 179.19325,269 c -1.09813,1.38422 -1.42816,2.06599 -1.03201,2.94706 0.3591,0.79867 1.28759,1.20591 0.82092,3.05294 0.7664,-0.89992 1.37585,-2.04275 0.77401,-2.9647 -0.61213,-0.9377 -0.94785,-1.5073 -0.56292,-3.0353 z"
         id="path4276"
         sodipodi:nodetypes="cscsc" />
      <path
         sodipodi:nodetypes="cscsc"
         id="path4278"
         d="m 176.19325,269 c -1.09813,1.38422 -1.42816,2.06599 -1.03201,2.94706 0.3591,0.79867 1.28759,1.20591 0.82092,3.05294 0.7664,-0.89992 1.37585,-2.04275 0.77401,-2.9647 -0.61213,-0.9377 -0.94785,-1.5073 -0.56292,-3.0353 z"
         style="opacity:0.35;color:#000000;fill:#ffffff;fill-opacity:1;fill-rule:nonzero;stroke:none;stroke-width:1;marker:none;visibility:visible;display:inline;overflow:visible;enable-background:accumulate"
         inkscape:connector-curvature="0" />
      <path
         inkscape:connector-curvature="0"
         style="opacity:0.35;color:#000000;fill:#ffffff;fill-opacity:1;fill-rule:nonzero;stroke:none;stroke-width:1;marker:none;visibility:visible;display:inline;overflow:visible;enable-background:accumulate"
         d="m 182.19325,269 c -1.09813,1.38422 -1.42816,2.06599 -1.03201,2.94706 0.3591,0.79867 1.28759,1.20591 0.82092,3.05294 0.7664,-0.89992 1.37585,-2.04275 0.77401,-2.9647 -0.61213,-0.9377 -0.94785,-1.5073 -0.56292,-3.0353 z"
         id="path4280"
         sodipodi:nodetypes="cscsc" />
    </g>
  </g>
</svg>
