<?xml version="1.0" encoding="UTF-8" standalone="no"?>
<!-- Created with Inkscape (http://www.inkscape.org/) -->

<svg
   xmlns:dc="http://purl.org/dc/elements/1.1/"
   xmlns:cc="http://creativecommons.org/ns#"
   xmlns:rdf="http://www.w3.org/1999/02/22-rdf-syntax-ns#"
   xmlns:svg="http://www.w3.org/2000/svg"
   xmlns="http://www.w3.org/2000/svg"
   xmlns:sodipodi="http://sodipodi.sourceforge.net/DTD/sodipodi-0.dtd"
   xmlns:inkscape="http://www.inkscape.org/namespaces/inkscape"
   width="22"
   height="22"
   id="svg3396"
   version="1.1"
   inkscape:version="0.48.4 r9939"
   sodipodi:docname="cpu-frequency-indicator.svg">
  <defs
     id="defs3398" />
  <sodipodi:namedview
     id="base"
     pagecolor="#000000"
     bordercolor="#666666"
     borderopacity="1.0"
     inkscape:pageopacity="0.63137255"
     inkscape:pageshadow="2"
     inkscape:zoom="5.6568542"
     inkscape:cx="32.582215"
     inkscape:cy="-2.1559614"
     inkscape:current-layer="layer1"
     showgrid="false"
     inkscape:grid-bbox="true"
     inkscape:document-units="px"
     inkscape:window-width="1364"
     inkscape:window-height="700"
     inkscape:window-x="0"
     inkscape:window-y="28"
     inkscape:window-maximized="1"
     showguides="true"
     inkscape:guide-bbox="true"
     inkscape:snap-bbox="true"
     inkscape:bbox-nodes="true"
     inkscape:bbox-paths="true"
     inkscape:snap-bbox-edge-midpoints="true"
     inkscape:snap-bbox-midpoints="true">
    <inkscape:grid
       type="xygrid"
       id="grid3404"
       empspacing="4"
       visible="true"
       enabled="true"
       snapvisiblegridlinesonly="true"
       originy="3px"
       originx="3px" />
    <sodipodi:guide
       orientation="0,1"
       position="3,19"
       id="guide3489" />
    <sodipodi:guide
       orientation="0,1"
       position="3,3"
       id="guide3491" />
    <sodipodi:guide
       orientation="1,0"
       position="3,19"
       id="guide3495" />
    <sodipodi:guide
       orientation="1,0"
       position="19,19"
       id="guide3497" />
  </sodipodi:namedview>
  <metadata
     id="metadata3401">
    <rdf:RDF>
      <cc:Work
         rdf:about="">
        <dc:format>image/svg+xml</dc:format>
        <dc:type
           rdf:resource="http://purl.org/dc/dcmitype/StillImage" />
        <dc:title />
      </cc:Work>
    </rdf:RDF>
  </metadata>
  <g
     id="layer1"
     inkscape:label="Layer 1"
     inkscape:groupmode="layer"
     transform="translate(0,6)">
    <g
       transform="translate(-509,-270.00002)"
       id="g3882"
       style="opacity:0.2;fill:#000000;fill-opacity:1;display:inline;enable-background:new">
      <path
         inkscape:connector-curvature="0"
         id="path3884"
         d="m 517,270 c -1.662,0 -3,1.338 -3,3 l 0,6 c 0,1.662 1.338,3 3,3 l 6,0 c 1.662,0 3,-1.338 3,-3 l 0,-6 c 0,-1.662 -1.338,-3 -3,-3 l -6,0 z m 0,2 6,0 c 0.554,0 1,0.446 1,1 l 0,6 c 0,0.554 -0.446,1 -1,1 l -6,0 c -0.554,0 -1,-0.446 -1,-1 l 0,-6 c 0,-0.554 0.446,-1 1,-1 z"
         style="color:#000000;fill:#000000;fill-opacity:1;fill-rule:nonzero;stroke:none;stroke-width:2;marker:none;visibility:visible;display:inline;overflow:visible;enable-background:new" />
      <rect
         style="color:#000000;fill:#000000;fill-opacity:1;fill-rule:nonzero;stroke:none;stroke-width:2;marker:none;visibility:visible;display:inline;overflow:visible;enable-background:new"
         id="rect3886"
         width="6"
         height="6"
         x="517"
         y="273"
         ry="0" />
      <path
         sodipodi:nodetypes="sscscsssssccssssscscssscsssscsccscssssccsssscc"
         inkscape:connector-curvature="0"
         id="path3888"
         d="m 516.5,267.00002 c -0.277,0 -0.5,0.223 -0.5,0.5 l 0,1.65623 C 516.31943,269.07329 516.65568,269 517,269 l 1,0 0,-1.49998 c 0,-0.277 -0.223,-0.5 -0.5,-0.5 z m 3,0 c -0.277,0 -0.5,0.223 -0.5,0.5 l 0,1.49998 2,0 0,-1.49998 c 0,-0.277 -0.223,-0.5 -0.5,-0.5 z m 3,0 c -0.277,0 -0.5,0.223 -0.5,0.5 l 0,1.49998 1,0 c 0.34432,0 0.68057,0.0733 1,0.15625 l 0,-1.65623 c 0,-0.277 -0.223,-0.5 -0.5,-0.5 z m -6.5,15.84373 0,1.65627 c 0,0.27699 0.223,0.5 0.5,0.5 l 1,0 c 0.277,0 0.5,-0.22301 0.5,-0.5 L 518,283 l -1,0 c -0.34432,0 -0.68057,-0.0733 -1,-0.15625 z m 8,0 C 523.68057,282.92671 523.34432,283 523,283 l -1,0 0,1.50002 c 0,0.27699 0.223,0.5 0.5,0.5 l 1,0 c 0.277,0 0.5,-0.22301 0.5,-0.5 z M 519,283 l 0,1.50002 c 0,0.27699 0.223,0.5 0.5,0.5 l 1,0 c 0.277,0 0.5,-0.22301 0.5,-0.5 L 521,283 z"
         style="color:#000000;fill:#000000;fill-opacity:1;fill-rule:nonzero;stroke:none;stroke-width:2;marker:none;visibility:visible;display:inline;overflow:visible;enable-background:new" />
      <path
         sodipodi:nodetypes="sssscscscscsssscssssccsccsssscsssscscscscssssc"
         inkscape:connector-curvature="0"
         id="path3890"
         d="m 511.5,272 c -0.277,0 -0.5,0.223 -0.5,0.5 l 0,1 c 0,0.277 0.223,0.5 0.5,0.5 l 1.5,0 0,-1 c 0,-0.34432 0.0733,-0.68057 0.15625,-1 z m 15.34375,0 c 0.083,0.31943 0.15625,0.65568 0.15625,1 l 0,1 1.5,0 c 0.277,0 0.5,-0.223 0.5,-0.5 l 0,-1 c 0,-0.277 -0.223,-0.5 -0.5,-0.5 z M 511.5,275 c -0.277,0 -0.5,0.223 -0.5,0.5 l 0,1 c 0,0.277 0.223,0.5 0.5,0.5 l 1.5,0 0,-2 z m 15.5,0 0,2 1.5,0 c 0.277,0 0.5,-0.223 0.5,-0.5 l 0,-1 c 0,-0.277 -0.223,-0.5 -0.5,-0.5 z m -15.5,3 c -0.277,0 -0.5,0.223 -0.5,0.5 l 0,1 c 0,0.277 0.223,0.5 0.5,0.5 l 1.65625,0 C 513.07329,279.68057 513,279.34432 513,279 l 0,-1 z m 15.5,0 0,1 c 0,0.34432 -0.0733,0.68057 -0.15625,1 l 1.65625,0 c 0.277,0 0.5,-0.223 0.5,-0.5 l 0,-1 c 0,-0.277 -0.223,-0.5 -0.5,-0.5 z"
         style="color:#000000;fill:#000000;fill-opacity:1;fill-rule:nonzero;stroke:none;stroke-width:2;marker:none;visibility:visible;display:inline;overflow:visible;enable-background:new" />
    </g>
    <g
       style="fill:#ffffff;fill-opacity:1;display:inline;enable-background:new"
       id="g4186"
       transform="translate(-509,-271.00002)">
      <path
         style="color:#000000;fill:#ffffff;fill-opacity:1;fill-rule:nonzero;stroke:none;stroke-width:2;marker:none;visibility:visible;display:inline;overflow:visible;enable-background:new"
         d="m 517,270 c -1.662,0 -3,1.338 -3,3 l 0,6 c 0,1.662 1.338,3 3,3 l 6,0 c 1.662,0 3,-1.338 3,-3 l 0,-6 c 0,-1.662 -1.338,-3 -3,-3 l -6,0 z m 0,2 6,0 c 0.554,0 1,0.446 1,1 l 0,6 c 0,0.554 -0.446,1 -1,1 l -6,0 c -0.554,0 -1,-0.446 -1,-1 l 0,-6 c 0,-0.554 0.446,-1 1,-1 z"
         id="path4188"
         inkscape:connector-curvature="0" />
      <rect
         ry="0"
         y="273"
         x="517"
         height="6"
         width="6"
         id="rect4190"
         style="color:#000000;fill:#ffffff;fill-opacity:1;fill-rule:nonzero;stroke:none;stroke-width:2;marker:none;visibility:visible;display:inline;overflow:visible;enable-background:new" />
      <path
         style="color:#000000;fill:#ffffff;fill-opacity:1;fill-rule:nonzero;stroke:none;stroke-width:2;marker:none;visibility:visible;display:inline;overflow:visible;enable-background:new"
         d="m 516.5,267.00002 c -0.277,0 -0.5,0.223 -0.5,0.5 l 0,1.65623 C 516.31943,269.07329 516.65568,269 517,269 l 1,0 0,-1.49998 c 0,-0.277 -0.223,-0.5 -0.5,-0.5 z m 3,0 c -0.277,0 -0.5,0.223 -0.5,0.5 l 0,1.49998 2,0 0,-1.49998 c 0,-0.277 -0.223,-0.5 -0.5,-0.5 z m 3,0 c -0.277,0 -0.5,0.223 -0.5,0.5 l 0,1.49998 1,0 c 0.34432,0 0.68057,0.0733 1,0.15625 l 0,-1.65623 c 0,-0.277 -0.223,-0.5 -0.5,-0.5 z m -6.5,15.84373 0,1.65627 c 0,0.27699 0.223,0.5 0.5,0.5 l 1,0 c 0.277,0 0.5,-0.22301 0.5,-0.5 L 518,283 l -1,0 c -0.34432,0 -0.68057,-0.0733 -1,-0.15625 z m 8,0 C 523.68057,282.92671 523.34432,283 523,283 l -1,0 0,1.50002 c 0,0.27699 0.223,0.5 0.5,0.5 l 1,0 c 0.277,0 0.5,-0.22301 0.5,-0.5 z M 519,283 l 0,1.50002 c 0,0.27699 0.223,0.5 0.5,0.5 l 1,0 c 0.277,0 0.5,-0.22301 0.5,-0.5 L 521,283 z"
         id="path4192"
         inkscape:connector-curvature="0"
         sodipodi:nodetypes="sscscsssssccssssscscssscsssscsccscssssccsssscc" />
      <path
         style="color:#000000;fill:#ffffff;fill-opacity:1;fill-rule:nonzero;stroke:none;stroke-width:2;marker:none;visibility:visible;display:inline;overflow:visible;enable-background:new"
         d="m 511.5,272 c -0.277,0 -0.5,0.223 -0.5,0.5 l 0,1 c 0,0.277 0.223,0.5 0.5,0.5 l 1.5,0 0,-1 c 0,-0.34432 0.0733,-0.68057 0.15625,-1 z m 15.34375,0 c 0.083,0.31943 0.15625,0.65568 0.15625,1 l 0,1 1.5,0 c 0.277,0 0.5,-0.223 0.5,-0.5 l 0,-1 c 0,-0.277 -0.223,-0.5 -0.5,-0.5 z M 511.5,275 c -0.277,0 -0.5,0.223 -0.5,0.5 l 0,1 c 0,0.277 0.223,0.5 0.5,0.5 l 1.5,0 0,-2 z m 15.5,0 0,2 1.5,0 c 0.277,0 0.5,-0.223 0.5,-0.5 l 0,-1 c 0,-0.277 -0.223,-0.5 -0.5,-0.5 z m -15.5,3 c -0.277,0 -0.5,0.223 -0.5,0.5 l 0,1 c 0,0.277 0.223,0.5 0.5,0.5 l 1.65625,0 C 513.07329,279.68057 513,279.34432 513,279 l 0,-1 z m 15.5,0 0,1 c 0,0.34432 -0.0733,0.68057 -0.15625,1 l 1.65625,0 c 0.277,0 0.5,-0.223 0.5,-0.5 l 0,-1 c 0,-0.277 -0.223,-0.5 -0.5,-0.5 z"
         id="path4194"
         inkscape:connector-curvature="0"
         sodipodi:nodetypes="sssscscscscsssscssssccsccsssscsssscscscscssssc" />
    </g>
  </g>
</svg>
