<?xml version="1.0" encoding="UTF-8" standalone="no"?>
<!-- Created with Inkscape (http://www.inkscape.org/) -->

<svg
   xmlns:dc="http://purl.org/dc/elements/1.1/"
   xmlns:cc="http://creativecommons.org/ns#"
   xmlns:rdf="http://www.w3.org/1999/02/22-rdf-syntax-ns#"
   xmlns:svg="http://www.w3.org/2000/svg"
   xmlns="http://www.w3.org/2000/svg"
   xmlns:sodipodi="http://sodipodi.sourceforge.net/DTD/sodipodi-0.dtd"
   xmlns:inkscape="http://www.inkscape.org/namespaces/inkscape"
   width="22"
   height="22"
   id="svg3396"
   version="1.1"
   inkscape:version="0.48.4 r9939"
   sodipodi:docname="dropbox-status-busy2.svg">
  <defs
     id="defs3398" />
  <sodipodi:namedview
     id="base"
     pagecolor="#000000"
     bordercolor="#666666"
     borderopacity="1.0"
     inkscape:pageopacity="0.63137255"
     inkscape:pageshadow="2"
     inkscape:zoom="1"
     inkscape:cx="13.602473"
     inkscape:cy="7.4648869"
     inkscape:current-layer="layer1"
     showgrid="true"
     inkscape:grid-bbox="true"
     inkscape:document-units="px"
     inkscape:window-width="1364"
     inkscape:window-height="700"
     inkscape:window-x="0"
     inkscape:window-y="28"
     inkscape:window-maximized="1"
     showguides="true"
     inkscape:guide-bbox="true">
    <inkscape:grid
       type="xygrid"
       id="grid3404"
       empspacing="4"
       visible="true"
       enabled="true"
       snapvisiblegridlinesonly="true"
       originy="3px"
       originx="3px" />
    <sodipodi:guide
       orientation="0,1"
       position="3,19"
       id="guide3489" />
    <sodipodi:guide
       orientation="0,1"
       position="3,3"
       id="guide3491" />
    <sodipodi:guide
       orientation="1,0"
       position="3,19"
       id="guide3495" />
    <sodipodi:guide
       orientation="1,0"
       position="19,19"
       id="guide3497" />
  </sodipodi:namedview>
  <metadata
     id="metadata3401">
    <rdf:RDF>
      <cc:Work
         rdf:about="">
        <dc:format>image/svg+xml</dc:format>
        <dc:type
           rdf:resource="http://purl.org/dc/dcmitype/StillImage" />
        <dc:title></dc:title>
      </cc:Work>
    </rdf:RDF>
  </metadata>
  <g
     id="layer1"
     inkscape:label="Layer 1"
     inkscape:groupmode="layer"
     transform="translate(0,6)">
    <path
       id="path3979"
       d="M 7,-2 3,1 7,4 3,7 11,13 19,7 15,4 19,1 15,-2 11,1 7,-2 z m 1,4 0.40625,0 c 0.0311,-0.003 0.0627,-0.003 0.0937,0 l 2,0 0.5,0 0,3 -0.40625,0 C 10.5575,5.004 10.5362,5.004 10.5,5 10.23821,4.99997 10.00003,4.76179 10,4.5 l 0,-0.71875 c 0,-0.0278 3e-5,-0.0366 0,-0.0625 C 9.1175,4.10545 8.5,4.97222 8.5,6 8.5,7.02779 9.11745,7.92581 10,8.3125 l 0,1.03125 C 8.56286,8.90974 7.5,7.57661 7.5,6 7.5,4.71129 8.20577,3.60529 9.25,3 L 8.5,3 C 8.27095,3.006 8.0501,2.84857 8,2.625 7.993,2.6046 7.9728,2.5837 7.9688,2.5625 7.9678,2.5152 7.9883,2.45205 8,2.40625 L 8,2 z m 4,0.65625 C 13.43715,3.09026 14.5,4.4234 14.5,6 c 0,1.27326 -0.72627,2.38968 -1.75,3 l 0.71875,0 c 0.22905,-0.006 0.4499,0.15142 0.5,0.375 0.007,0.0204 -0.004,0.0413 0,0.0625 10e-4,0.0473 0.0118,0.11045 0,0.15625 l 0,0.40625 -0.40625,0 c -0.0311,0.003 -0.0627,0.003 -0.0937,0 l -2,0 -0.5,0 0,-3 0.40625,0 c 0.0362,-0.004 0.0575,-0.004 0.0937,0 0.26179,3e-5 0.49998,0.23822 0.5,0.5 l 0,0.71875 c -10e-5,0.26825 0.005,0.41536 0.0312,0.53125 l 0,-0.4375 c 0.88251,-0.38669 1.5,-1.28471 1.5,-2.3125 0,-1.02778 -0.61749,-1.89455 -1.5,-2.28125 l 0,-1.0625 z"
       style="color:#000000;fill:#000000;fill-opacity:1;fill-rule:nonzero;stroke:none;stroke-width:1;marker:none;visibility:visible;display:inline;overflow:visible;enable-background:accumulate;opacity:0.2"
       inkscape:connector-curvature="0" />
    <path
       inkscape:connector-curvature="0"
       style="color:#000000;fill:#ffffff;fill-opacity:1;fill-rule:nonzero;stroke:none;stroke-width:1;marker:none;visibility:visible;display:inline;overflow:visible;enable-background:accumulate"
       d="M 7,-3 3,0 7,3 3,6 11,12 19,6 15,3 19,0 15,-3 11,0 7,-3 z m 1,4 0.40625,0 c 0.0311,-0.003 0.0627,-0.003 0.0937,0 l 2,0 0.5,0 0,3 -0.40625,0 C 10.5575,4.004 10.5362,4.004 10.5,4 10.23821,3.99997 10.00003,3.76179 10,3.5 l 0,-0.71875 c 0,-0.0278 3e-5,-0.0366 0,-0.0625 C 9.1175,3.10545 8.5,3.97222 8.5,5 8.5,6.02779 9.11745,6.92581 10,7.3125 l 0,1.03125 C 8.56286,7.90974 7.5,6.57661 7.5,5 7.5,3.71129 8.20577,2.60529 9.25,2 L 8.5,2 C 8.27095,2.006 8.0501,1.84857 8,1.625 7.993,1.6046 7.9728,1.5837 7.9688,1.5625 7.9678,1.5152 7.9883,1.45205 8,1.40625 L 8,1 z m 4,0.65625 C 13.43715,2.09026 14.5,3.4234 14.5,5 c 0,1.27326 -0.72627,2.38968 -1.75,3 l 0.71875,0 c 0.22905,-0.006 0.4499,0.15142 0.5,0.375 0.007,0.0204 -0.004,0.0413 0,0.0625 10e-4,0.0473 0.0118,0.11045 0,0.15625 l 0,0.40625 -0.40625,0 c -0.0311,0.003 -0.0627,0.003 -0.0937,0 l -2,0 -0.5,0 0,-3 0.40625,0 c 0.0362,-0.004 0.0575,-0.004 0.0937,0 0.26179,3e-5 0.49998,0.23822 0.5,0.5 l 0,0.71875 c -10e-5,0.26825 0.005,0.41536 0.0312,0.53125 l 0,-0.4375 c 0.88251,-0.38669 1.5,-1.28471 1.5,-2.3125 0,-1.02778 -0.61749,-1.89455 -1.5,-2.28125 l 0,-1.0625 z"
       id="path4329-9" />
  </g>
</svg>
