<?xml version="1.0" encoding="UTF-8" standalone="no"?>
<!-- Created with Inkscape (http://www.inkscape.org/) -->

<svg
   xmlns:dc="http://purl.org/dc/elements/1.1/"
   xmlns:cc="http://creativecommons.org/ns#"
   xmlns:rdf="http://www.w3.org/1999/02/22-rdf-syntax-ns#"
   xmlns:svg="http://www.w3.org/2000/svg"
   xmlns="http://www.w3.org/2000/svg"
   xmlns:xlink="http://www.w3.org/1999/xlink"
   xmlns:sodipodi="http://sodipodi.sourceforge.net/DTD/sodipodi-0.dtd"
   xmlns:inkscape="http://www.inkscape.org/namespaces/inkscape"
   version="1.2"
   width="48"
   height="48"
   id="svg2"
   inkscape:version="0.48.4 r9939"
   sodipodi:docname="notification-audio-volume-low.svg">
  <sodipodi:namedview
     pagecolor="#ffffff"
     bordercolor="#666666"
     borderopacity="1"
     objecttolerance="10"
     gridtolerance="10"
     guidetolerance="10"
     inkscape:pageopacity="0"
     inkscape:pageshadow="2"
     inkscape:window-width="1364"
     inkscape:window-height="700"
     id="namedview23"
     showgrid="false"
     inkscape:zoom="1"
     inkscape:cx="23.881462"
     inkscape:cy="29.724312"
     inkscape:window-x="0"
     inkscape:window-y="28"
     inkscape:window-maximized="1"
     inkscape:current-layer="svg2">
    <inkscape:grid
       type="xygrid"
       id="grid3777" />
  </sodipodi:namedview>
  <defs
     id="defs4">
    <linearGradient
       x1="45.447727"
       y1="92.539597"
       x2="45.447727"
       y2="7.0165396"
       id="ButtonShadow-9"
       gradientUnits="userSpaceOnUse"
       gradientTransform="scale(1.0058652,0.994169)">
      <stop
         id="stop3750-3"
         style="stop-color:#000000;stop-opacity:1"
         offset="0" />
      <stop
         id="stop3752-1"
         style="stop-color:#000000;stop-opacity:0.58823532"
         offset="1" />
    </linearGradient>
    <filter
       color-interpolation-filters="sRGB"
       id="filter3174-4">
      <feGaussianBlur
         stdDeviation="1.71"
         id="feGaussianBlur3176-5" />
    </filter>
    <linearGradient
       x1="45.447727"
       y1="92.539597"
       x2="45.447727"
       y2="7.0165396"
       id="ButtonShadow"
       gradientUnits="userSpaceOnUse"
       gradientTransform="scale(1.0058652,0.994169)">
      <stop
         id="stop3750-9"
         style="stop-color:#000000;stop-opacity:1"
         offset="0" />
      <stop
         id="stop3752-7"
         style="stop-color:#000000;stop-opacity:0.58823532"
         offset="1" />
    </linearGradient>
    <filter
       color-interpolation-filters="sRGB"
       id="filter3174">
      <feGaussianBlur
         stdDeviation="1.71"
         id="feGaussianBlur3176" />
    </filter>
    <linearGradient
       x1="45.447727"
       y1="92.539597"
       x2="45.447727"
       y2="7.0165396"
       id="linearGradient6176"
       xlink:href="#ButtonShadow-9"
       gradientUnits="userSpaceOnUse"
       gradientTransform="scale(1.0058652,0.994169)" />
    <linearGradient
       x1="45.447727"
       y1="92.539597"
       x2="45.447727"
       y2="7.0165396"
       id="linearGradient6178"
       xlink:href="#ButtonShadow"
       gradientUnits="userSpaceOnUse"
       gradientTransform="scale(1.0058652,0.994169)" />
  </defs>
  <metadata
     id="metadata7">
    <rdf:RDF>
      <cc:Work
         rdf:about="">
        <dc:format>image/svg+xml</dc:format>
        <dc:type
           rdf:resource="http://purl.org/dc/dcmitype/StillImage" />
        <dc:title></dc:title>
      </cc:Work>
    </rdf:RDF>
  </metadata>
  <path
     inkscape:connector-curvature="0"
     d="m 22.9375,11.9999 -6,6 -2.9375,0 -2,0 0,12 4.9375,0 6.125,6.0625 L 24,36 24,12 22.9375,12 z m 6.5625,2.25 c -0.0217,0.01987 -0.04253,0.0407 -0.0624,0.0624 -0.697335,0.215307 -0.892218,1.306648 -0.3125,1.75 4.35066,3.5817 4.98246,10.0361 1.4375,14.4375 -0.45408,0.56376 -0.8205,0.97522 -1.375,1.4375 -0.409223,0.327194 -0.483771,0.997289 -0.156465,1.406422 0.327307,0.409133 0.997422,0.483497 1.406465,0.156078 0.64074,-0.5342 1.16334,-1.09924 1.6875,-1.75 4.2222,-5.24224 3.4379,-12.97902 -1.75,-17.25 -0.230305,-0.21477 -0.566008,-0.310646 -0.875,-0.2499 z m -2.75,4.4375 c -0.0217,0.01987 -0.04253,0.0407 -0.0624,0.0624 -0.682161,0.180557 -0.946007,1.198251 -0.4375,1.6875 1.96394,1.98024 1.95814,5.20192 0,7.1875 -0.441825,0.341768 -0.496909,1.07869 -0.110804,1.482345 0.386105,0.403655 1.124747,0.381362 1.485804,-0.04484 l 0.0624,-0.0624 c 2.7179,-2.75598 2.7259,-7.25144 0,-10 -0.230348,-0.25621 -0.599496,-0.379259 -0.9375,-0.3125 z"
     id="path5786"
     style="color:#444444;fill:#444444;fill-opacity:1;fill-rule:nonzero;stroke:none;stroke-width:1;marker:none;visibility:visible;display:inline;overflow:visible;enable-background:new"
     sodipodi:nodetypes="ccccccccccccccccscccccccccscccc" />
</svg>
