<?xml version="1.0" encoding="UTF-8" standalone="no"?>
<!-- Created with Inkscape (http://www.inkscape.org/) -->

<svg
   xmlns:dc="http://purl.org/dc/elements/1.1/"
   xmlns:cc="http://creativecommons.org/ns#"
   xmlns:rdf="http://www.w3.org/1999/02/22-rdf-syntax-ns#"
   xmlns:svg="http://www.w3.org/2000/svg"
   xmlns="http://www.w3.org/2000/svg"
   xmlns:xlink="http://www.w3.org/1999/xlink"
   xmlns:sodipodi="http://sodipodi.sourceforge.net/DTD/sodipodi-0.dtd"
   xmlns:inkscape="http://www.inkscape.org/namespaces/inkscape"
   version="1.2"
   width="48"
   height="48"
   id="svg2"
   inkscape:version="0.48.4 r9939"
   sodipodi:docname="notification-audio-volume-high.svg">
  <sodipodi:namedview
     pagecolor="#ffffff"
     bordercolor="#666666"
     borderopacity="1"
     objecttolerance="10"
     gridtolerance="10"
     guidetolerance="10"
     inkscape:pageopacity="0"
     inkscape:pageshadow="2"
     inkscape:window-width="1364"
     inkscape:window-height="700"
     id="namedview23"
     showgrid="false"
     inkscape:zoom="1"
     inkscape:cx="16.767033"
     inkscape:cy="26.581491"
     inkscape:window-x="0"
     inkscape:window-y="28"
     inkscape:window-maximized="1"
     inkscape:current-layer="svg2">
    <inkscape:grid
       type="xygrid"
       id="grid3777" />
  </sodipodi:namedview>
  <defs
     id="defs4">
    <linearGradient
       x1="45.447727"
       y1="92.539597"
       x2="45.447727"
       y2="7.0165396"
       id="ButtonShadow-9"
       gradientUnits="userSpaceOnUse"
       gradientTransform="scale(1.0058652,0.994169)">
      <stop
         id="stop3750-3"
         style="stop-color:#000000;stop-opacity:1"
         offset="0" />
      <stop
         id="stop3752-1"
         style="stop-color:#000000;stop-opacity:0.58823532"
         offset="1" />
    </linearGradient>
    <filter
       color-interpolation-filters="sRGB"
       id="filter3174-4">
      <feGaussianBlur
         stdDeviation="1.71"
         id="feGaussianBlur3176-5" />
    </filter>
    <linearGradient
       x1="45.447727"
       y1="92.539597"
       x2="45.447727"
       y2="7.0165396"
       id="ButtonShadow"
       gradientUnits="userSpaceOnUse"
       gradientTransform="scale(1.0058652,0.994169)">
      <stop
         id="stop3750-9"
         style="stop-color:#000000;stop-opacity:1"
         offset="0" />
      <stop
         id="stop3752-7"
         style="stop-color:#000000;stop-opacity:0.58823532"
         offset="1" />
    </linearGradient>
    <filter
       color-interpolation-filters="sRGB"
       id="filter3174">
      <feGaussianBlur
         stdDeviation="1.71"
         id="feGaussianBlur3176" />
    </filter>
    <linearGradient
       x1="45.447727"
       y1="92.539597"
       x2="45.447727"
       y2="7.0165396"
       id="linearGradient6176"
       xlink:href="#ButtonShadow-9"
       gradientUnits="userSpaceOnUse"
       gradientTransform="scale(1.0058652,0.994169)" />
    <linearGradient
       x1="45.447727"
       y1="92.539597"
       x2="45.447727"
       y2="7.0165396"
       id="linearGradient6178"
       xlink:href="#ButtonShadow"
       gradientUnits="userSpaceOnUse"
       gradientTransform="scale(1.0058652,0.994169)" />
  </defs>
  <metadata
     id="metadata7">
    <rdf:RDF>
      <cc:Work
         rdf:about="">
        <dc:format>image/svg+xml</dc:format>
        <dc:type
           rdf:resource="http://purl.org/dc/dcmitype/StillImage" />
        <dc:title />
      </cc:Work>
    </rdf:RDF>
  </metadata>
  <path
     inkscape:connector-curvature="0"
     d="m 30.37734,10.007087 a 1.0000999,1.0000999 0 0 0 -0.25,1.8125 c 6.67068,5.24228 7.87538,14.939899 2.6875,21.687499 -0.83328,1.08384 -1.61574,1.84566 -2.6875,2.6875 a 1.0063276,1.0063276 0 1 0 1.1875,1.625 c 1.18348,-0.9296 2.1431,-1.92916 3.0625,-3.125 5.84564,-7.60312 4.46126,-18.587319 -3.0625,-24.499999 a 1.0000999,1.0000999 0 0 0 -0.8125,-0.1874 1.0000999,1.0000999 0 0 0 -0.125,0 z m -9.4375,2 -6,6 -2.9375,0 -2,0 0,11.999999 4.9375,0 6.125,6.0625 0.9375,-0.0624 0,-23.999999 -1.0625,0 z m 6.5,2.25 a 1.0000998,1.0000998 0 0 0 -0.3125,1.8125 c 4.35066,3.5817 4.98246,10.036099 1.4375,14.437499 -0.45408,0.56376 -0.8205,0.97522 -1.375,1.4375 a 1.0000998,1.0000998 0 1 0 1.25,1.5 c 0.64074,-0.5342 1.16334,-1.03674 1.6875,-1.6875 4.2222,-5.24224 3.4379,-12.979019 -1.75,-17.249999 a 1.0000998,1.0000998 0 0 0 -0.8125,-0.25 1.0000998,1.0000998 0 0 0 -0.125,0 z m -2.8125,4.4375 a 1.0000998,1.0000998 0 0 0 -0.375,1.75 c 1.96394,1.980239 1.95814,5.139419 0,7.124999 -0.016,0.016 0.008,0.0552 0,0.0624 a 1.0000998,1.0000998 0 1 0 1.375,1.375 c 0.016,-0.016 0.0544,0.008 0.0624,0 2.7179,-2.75598 2.7259,-7.25144 0,-9.999999 a 1.0000998,1.0000998 0 0 0 -0.9375,-0.3125 1.0000998,1.0000998 0 0 0 -0.125,0 z"
     id="path5491"
     style="color:#444444;fill:#444444;fill-opacity:1;fill-rule:nonzero;stroke:none;stroke-width:1;marker:none;visibility:visible;display:inline;overflow:visible;enable-background:new" />
</svg>
