<?xml version="1.0" encoding="UTF-8" standalone="no"?>
<svg
   xmlns:dc="http://purl.org/dc/elements/1.1/"
   xmlns:cc="http://creativecommons.org/ns#"
   xmlns:rdf="http://www.w3.org/1999/02/22-rdf-syntax-ns#"
   xmlns:svg="http://www.w3.org/2000/svg"
   xmlns="http://www.w3.org/2000/svg"
   xmlns:sodipodi="http://sodipodi.sourceforge.net/DTD/sodipodi-0.dtd"
   xmlns:inkscape="http://www.inkscape.org/namespaces/inkscape"
   version="1.0"
   width="24"
   height="24"
   id="svg3046"
   inkscape:version="0.48.4 r9939"
   sodipodi:docname="brasero-disc-35.svg">
  <defs
     id="defs3054" />
  <sodipodi:namedview
     pagecolor="#ffffff"
     bordercolor="#666666"
     borderopacity="1"
     objecttolerance="10"
     gridtolerance="10"
     guidetolerance="10"
     inkscape:pageopacity="0"
     inkscape:pageshadow="2"
     inkscape:window-width="640"
     inkscape:window-height="480"
     id="namedview3052"
     showgrid="false"
     inkscape:zoom="1"
     inkscape:cx="12"
     inkscape:cy="11.186441"
     inkscape:window-x="0"
     inkscape:window-y="28"
     inkscape:window-maximized="0"
     inkscape:current-layer="svg3046" />
  <metadata
     id="metadata11">
    <rdf:RDF>
      <cc:Work
         rdf:about="">
        <dc:format>image/svg+xml</dc:format>
        <dc:type
           rdf:resource="http://purl.org/dc/dcmitype/StillImage" />
      </cc:Work>
    </rdf:RDF>
  </metadata>
  <path
     inkscape:connector-curvature="0"
     d="m 12,5 c -4.4159999,0 -8.0000002,3.5840001 -8,8 0,4.416 3.5840002,8 8,8 4.416,0 8,-3.584 8,-8 0,-4.4159999 -3.584,-7.9999998 -8,-8 z m 0,5 c 1.656,0 3,1.344 3,3 0,1.656 -1.344,3 -3,3 -1.656,0 -3,-1.344 -3,-3 10e-8,-1.656 1.344,-3 3,-3 z"
     id="path3170-4"
     style="opacity:0.2;fill-rule:evenodd" />
  <path
     inkscape:connector-curvature="0"
     id="path3170"
     d="m 12,4 c -4.4159999,0 -8.0000002,3.5840001 -8,8 0,4.416 3.5840002,8 8,8 4.416,0 8,-3.584 8,-8 0,-4.4159999 -3.584,-7.9999998 -8,-8 z m 0,5 c 1.656,10e-8 3,1.344 3,3 0,1.656 -1.344,3 -3,3 -1.656,0 -3,-1.344 -3,-3 10e-8,-1.656 1.344,-3 3,-3 z"
     style="opacity:0.35;fill:#ffffff;fill-rule:evenodd" />
  <path
     d="m 12,4 0,5 c 1.656,10e-8 3,1.344 3,3 0,0.667837 -0.223143,1.28395 -0.59375,1.78125 l 4.0625,2.9375 C 19.434667,15.396315 20,13.76146 20,12 20,7.5840001 16.416,4.0000002 12,4 z"
     id="path3288"
     inkscape:connector-curvature="0"
     style="fill:#ffffff" />
</svg>
