<?xml version="1.0" encoding="UTF-8" standalone="no"?>
<!-- Created with Inkscape (http://www.inkscape.org/) -->

<svg
   xmlns:dc="http://purl.org/dc/elements/1.1/"
   xmlns:cc="http://creativecommons.org/ns#"
   xmlns:rdf="http://www.w3.org/1999/02/22-rdf-syntax-ns#"
   xmlns:svg="http://www.w3.org/2000/svg"
   xmlns="http://www.w3.org/2000/svg"
   xmlns:sodipodi="http://sodipodi.sourceforge.net/DTD/sodipodi-0.dtd"
   xmlns:inkscape="http://www.inkscape.org/namespaces/inkscape"
   width="22"
   height="22"
   id="svg3396"
   version="1.1"
   inkscape:version="0.48.4 r9939"
   sodipodi:docname="mouse-battery-full.svg">
  <defs
     id="defs3398" />
  <sodipodi:namedview
     id="base"
     pagecolor="#000000"
     bordercolor="#666666"
     borderopacity="1.0"
     inkscape:pageopacity="0.63137255"
     inkscape:pageshadow="2"
     inkscape:zoom="16"
     inkscape:cx="10.472341"
     inkscape:cy="18.13969"
     inkscape:current-layer="layer1"
     showgrid="true"
     inkscape:grid-bbox="true"
     inkscape:document-units="px"
     inkscape:window-width="1364"
     inkscape:window-height="700"
     inkscape:window-x="0"
     inkscape:window-y="28"
     inkscape:window-maximized="1"
     showguides="true"
     inkscape:guide-bbox="true">
    <inkscape:grid
       type="xygrid"
       id="grid3404"
       empspacing="4"
       visible="true"
       enabled="true"
       snapvisiblegridlinesonly="true"
       originy="3px"
       originx="3px" />
    <sodipodi:guide
       orientation="0,1"
       position="3,19"
       id="guide3489" />
    <sodipodi:guide
       orientation="0,1"
       position="3,3"
       id="guide3491" />
    <sodipodi:guide
       orientation="1,0"
       position="3,19"
       id="guide3495" />
    <sodipodi:guide
       orientation="1,0"
       position="19,19"
       id="guide3497" />
  </sodipodi:namedview>
  <metadata
     id="metadata3401">
    <rdf:RDF>
      <cc:Work
         rdf:about="">
        <dc:format>image/svg+xml</dc:format>
        <dc:type
           rdf:resource="http://purl.org/dc/dcmitype/StillImage" />
        <dc:title></dc:title>
      </cc:Work>
    </rdf:RDF>
  </metadata>
  <g
     id="layer1"
     inkscape:label="Layer 1"
     inkscape:groupmode="layer"
     transform="translate(0,6)">
    <g
       style="opacity:0.2;fill:#000000;fill-opacity:1"
       id="g3771"
       transform="translate(0,1)">
      <path
         inkscape:connector-curvature="0"
         style="color:#bebebe;fill:#000000;fill-opacity:1;fill-rule:nonzero;stroke:#333333;stroke-width:0;stroke-linecap:round;stroke-linejoin:round;stroke-miterlimit:4;stroke-opacity:1;stroke-dasharray:none;marker:none;visibility:visible;display:inline;overflow:visible;enable-background:accumulate"
         d="m 15,-3 c -2.76999,0 -5,2.676 -5,6 l 0,4 c 0,3.324 2.23001,6 5,6 l 1,0 c 2.76999,0 5,-2.676 5,-6 l 0,-4 c 0,-3.324 -2.23001,-6 -5,-6 l 0,2 c 0.554,0 1,0.446 1,1 l 0,2 c 0,0.554 -0.446,1 -1,1 l 0,1 C 16,4.27614 15.77614,4.5 15.5,4.5 15.22386,4.5 15,4.27614 15,4 L 15,3 C 14.446,3 14,2.554 14,2 l 0,-2 c 0,-0.554 0.446,-1 1,-1 z m 0.5,3 C 15.223,0 15,0.223 15,0.5 l 0,1 C 15,1.777 15.223,2 15.5,2 15.777,2 16,1.777 16,1.5 l 0,-1 C 16,0.223 15.777,0 15.5,0 z"
         id="path3773"
         sodipodi:nodetypes="cssssssccsscssscssccsssssss" />
      <path
         id="path3775"
         d="M 3.5,-3 C 3.223,-3 3,-2.777 3,-2.5 L 3,-2 1.5,-2 C 1.223,-2 1,-1.777 1,-1.5 l 0,14 C 1,12.777 1.223,13 1.5,13 l 6,0 C 7.777,13 8,12.777 8,12.5 l 0,-14 C 8,-1.777 7.777,-2 7.5,-2 L 6,-2 6,-2.5 C 6,-2.777 5.777,-3 5.5,-3 z m -1.5,2 1.5,0 2,0 1.5,0 0,13 -5,0 z"
         style="color:#bebebe;fill:#000000;fill-opacity:1;fill-rule:nonzero;stroke:#333333;stroke-width:0;stroke-linecap:round;stroke-linejoin:round;stroke-miterlimit:4;stroke-opacity:1;stroke-dasharray:none;marker:none;visibility:visible;display:inline;overflow:visible;enable-background:accumulate"
         inkscape:connector-curvature="0"
         sodipodi:nodetypes="sscsssssssscsssccccccc" />
      <path
         sodipodi:nodetypes="ccccc"
         inkscape:connector-curvature="0"
         style="color:#bebebe;fill:#000000;fill-opacity:1;fill-rule:nonzero;stroke:#333333;stroke-width:0;stroke-linecap:round;stroke-linejoin:round;stroke-miterlimit:4;stroke-opacity:1;stroke-dasharray:none;marker:none;visibility:visible;display:inline;overflow:visible;enable-background:accumulate"
         d="m 3,2 0,9 3,0 0,-9 z"
         id="path3777" />
    </g>
    <g
       id="g2998"
       style="fill:#ffffff;fill-opacity:1">
      <path
         sodipodi:nodetypes="cssssssccsscssscssccsssssss"
         id="path4289"
         d="m 15,-3 c -2.76999,0 -5,2.676 -5,6 l 0,4 c 0,3.324 2.23001,6 5,6 l 1,0 c 2.76999,0 5,-2.676 5,-6 l 0,-4 c 0,-3.324 -2.23001,-6 -5,-6 l 0,2 c 0.554,0 1,0.446 1,1 l 0,2 c 0,0.554 -0.446,1 -1,1 l 0,1 C 16,4.27614 15.77614,4.5 15.5,4.5 15.22386,4.5 15,4.27614 15,4 L 15,3 C 14.446,3 14,2.554 14,2 l 0,-2 c 0,-0.554 0.446,-1 1,-1 z m 0.5,3 C 15.223,0 15,0.223 15,0.5 l 0,1 C 15,1.777 15.223,2 15.5,2 15.777,2 16,1.777 16,1.5 l 0,-1 C 16,0.223 15.777,0 15.5,0 z"
         style="color:#bebebe;fill:#ffffff;fill-opacity:1;fill-rule:nonzero;stroke:#333333;stroke-width:0;stroke-linecap:round;stroke-linejoin:round;stroke-miterlimit:4;stroke-opacity:1;stroke-dasharray:none;marker:none;visibility:visible;display:inline;overflow:visible;enable-background:accumulate"
         inkscape:connector-curvature="0" />
      <path
         sodipodi:nodetypes="sscsssssssscsssccccccc"
         inkscape:connector-curvature="0"
         style="color:#bebebe;fill:#ffffff;fill-opacity:1;fill-rule:nonzero;stroke:#333333;stroke-width:0;stroke-linecap:round;stroke-linejoin:round;stroke-miterlimit:4;stroke-opacity:1;stroke-dasharray:none;marker:none;visibility:visible;display:inline;overflow:visible;enable-background:accumulate"
         d="M 3.5,-3 C 3.223,-3 3,-2.777 3,-2.5 L 3,-2 1.5,-2 C 1.223,-2 1,-1.777 1,-1.5 l 0,14 C 1,12.777 1.223,13 1.5,13 l 6,0 C 7.777,13 8,12.777 8,12.5 l 0,-14 C 8,-1.777 7.777,-2 7.5,-2 L 6,-2 6,-2.5 C 6,-2.777 5.777,-3 5.5,-3 z m -1.5,2 1.5,0 2,0 1.5,0 0,13 -5,0 z"
         id="path2994" />
      <path
         id="path2996"
         d="m 3,2 0,9 3,0 0,-9 z"
         style="color:#bebebe;fill:#ffffff;fill-opacity:1;fill-rule:nonzero;stroke:#333333;stroke-width:0;stroke-linecap:round;stroke-linejoin:round;stroke-miterlimit:4;stroke-opacity:1;stroke-dasharray:none;marker:none;visibility:visible;display:inline;overflow:visible;enable-background:accumulate"
         inkscape:connector-curvature="0"
         sodipodi:nodetypes="ccccc" />
    </g>
  </g>
</svg>
