<?xml version="1.0" encoding="UTF-8" standalone="no"?>
<!-- Created with Inkscape (http://www.inkscape.org/) -->

<svg
   xmlns:osb="http://www.openswatchbook.org/uri/2009/osb"
   xmlns:dc="http://purl.org/dc/elements/1.1/"
   xmlns:cc="http://creativecommons.org/ns#"
   xmlns:rdf="http://www.w3.org/1999/02/22-rdf-syntax-ns#"
   xmlns:svg="http://www.w3.org/2000/svg"
   xmlns="http://www.w3.org/2000/svg"
   xmlns:sodipodi="http://sodipodi.sourceforge.net/DTD/sodipodi-0.dtd"
   xmlns:inkscape="http://www.inkscape.org/namespaces/inkscape"
   sodipodi:docname="network-cellular-signal-acquiring.svg"
   inkscape:export-filename="/home/sam/img/source-symbolic.png"
   inkscape:export-xdpi="270"
   inkscape:export-ydpi="270"
   height="22"
   id="svg7384"
   style="enable-background:new"
   version="1.1"
   inkscape:version="0.48.4 r9939"
   width="22">
  <sodipodi:namedview
     inkscape:bbox-nodes="true"
     inkscape:bbox-paths="true"
     bordercolor="#666666"
     borderlayer="false"
     borderopacity="1"
     inkscape:current-layer="layer9"
     inkscape:cx="11.00001"
     inkscape:cy="9"
     gridtolerance="10"
     inkscape:guide-bbox="true"
     guidetolerance="10"
     id="namedview88"
     inkscape:object-nodes="true"
     inkscape:object-paths="true"
     objecttolerance="10"
     pagecolor="#333333"
     inkscape:pageopacity="1"
     inkscape:pageshadow="2"
     showborder="true"
     showgrid="false"
     showguides="true"
     inkscape:showpageshadow="true"
     inkscape:snap-bbox="true"
     inkscape:snap-bbox-edge-midpoints="false"
     inkscape:snap-bbox-midpoints="false"
     inkscape:snap-center="false"
     inkscape:snap-global="true"
     inkscape:snap-grids="true"
     inkscape:snap-intersection-paths="true"
     inkscape:snap-midpoints="true"
     inkscape:snap-nodes="true"
     inkscape:snap-object-midpoints="true"
     inkscape:snap-others="true"
     inkscape:snap-page="false"
     inkscape:snap-smooth-nodes="true"
     inkscape:snap-to-guides="true"
     inkscape:window-height="700"
     inkscape:window-maximized="1"
     inkscape:window-width="1364"
     inkscape:window-x="0"
     inkscape:window-y="28"
     inkscape:zoom="1">
    <inkscape:grid
       color="#000000"
       dotted="false"
       empcolor="#0800ff"
       empopacity="0.4627451"
       empspacing="4"
       enabled="true"
       id="grid4866"
       opacity="0.16470588"
       originx="-118.99993px"
       originy="-519.99997px"
       snapvisiblegridlinesonly="true"
       spacingx="0.25px"
       spacingy="0.25px"
       type="xygrid"
       visible="true" />
  </sodipodi:namedview>
  <metadata
     id="metadata90">
    <rdf:RDF>
      <cc:Work
         rdf:about="">
        <dc:format>image/svg+xml</dc:format>
        <dc:type
           rdf:resource="http://purl.org/dc/dcmitype/StillImage" />
        <dc:title>Moka Symbolic Icon Theme</dc:title>
      </cc:Work>
    </rdf:RDF>
  </metadata>
  <title
     id="title8473">Moka Symbolic Icon Theme</title>
  <defs
     id="defs7386">
    <linearGradient
       id="linearGradient5606"
       osb:paint="solid">
      <stop
         id="stop5608"
         offset="0"
         style="stop-color:#000000;stop-opacity:1;" />
    </linearGradient>
    <filter
       inkscape:collect="always"
       color-interpolation-filters="sRGB"
       id="filter7554">
      <feBlend
         inkscape:collect="always"
         id="feBlend7556"
         in2="BackgroundImage"
         mode="darken" />
    </filter>
  </defs>
  <g
     inkscape:groupmode="layer"
     id="layer9"
     inkscape:label="status"
     style="display:inline"
     transform="translate(-360.00013,308.99997)">
    <path
       style="opacity:0.2;color:#444444;fill:#000000;fill-opacity:1;fill-rule:nonzero;stroke:none;stroke-width:1;marker:none;visibility:visible;display:inline;overflow:visible;enable-background:accumulate"
       id="path6584"
       d="m 368.00014,-296.99997 c -0.55228,0 -1,0.44772 -1,1 0,0.55228 0.44772,1 1,1 0.55228,0 1,-0.44772 1,-1 0,-0.55228 -0.44772,-1 -1,-1 z m 3,0 c -0.55228,0 -1,0.44772 -1,1 0,0.55228 0.44772,1 1,1 0.55228,0 1,-0.44772 1,-1 0,-0.55228 -0.44772,-1 -1,-1 z m 3,0 c -0.55228,0 -1,0.44772 -1,1 0,0.55228 0.44772,1 1,1 0.55228,0 1,-0.44772 1,-1 0,-0.55228 -0.44772,-1 -1,-1 z"
       inkscape:connector-curvature="0" />
    <path
       style="opacity:0.35;color:#444444;fill:#ffffff;fill-opacity:1;fill-rule:nonzero;stroke:none;stroke-width:1;marker:none;visibility:visible;display:inline;overflow:visible;enable-background:accumulate"
       d="M 16.5 3 C 16.223 3 16 3.223 16 3.5 L 16 12 L 16 17.5 C 16 17.777 16.223 18 16.5 18 L 17.5 18 C 17.777 18 18 17.777 18 17.5 L 18 3.5 C 18 3.223 17.777 3 17.5 3 L 16.5 3 z M 13.5 6 C 13.223 6 13 6.223 13 6.5 L 13 10 L 14 10 C 14.1385 10 14.27582 10.004695 14.40625 10.03125 C 14.447292 10.040376 14.491101 10.05084 14.53125 10.0625 C 14.69899 10.108135 14.853097 10.196275 15 10.28125 L 15 6.5 C 15 6.223 14.777 6 14.5 6 L 13.5 6 z M 10.5 9 C 10.223 9 10 9.223 10 9.5 L 10 10 L 11 10 L 12 10 L 12 9.5 C 12 9.223 11.777 9 11.5 9 L 10.5 9 z M 7 13.71875 L 7 17.5 C 7 17.777 7.223 18 7.5 18 L 8.5 18 C 8.777 18 9 17.777 9 17.5 L 9 14 L 8 14 C 7.8164875 14 7.6373407 13.983367 7.46875 13.9375 C 7.4368566 13.928238 7.4062659 13.917022 7.375 13.90625 C 7.2418952 13.862847 7.1190447 13.78761 7 13.71875 z M 15 13.71875 C 14.928314 13.760216 14.858267 13.811283 14.78125 13.84375 C 14.699741 13.879467 14.61773 13.912385 14.53125 13.9375 C 14.362659 13.983367 14.183513 14 14 14 L 13 14 L 13 17.5 C 13 17.777 13.223 18 13.5 18 L 14.5 18 C 14.777 18 15 17.777 15 17.5 L 15 13.71875 z M 10 14 L 10 17.5 C 10 17.777 10.223 18 10.5 18 L 11.5 18 C 11.777 18 12 17.777 12 17.5 L 12 14 L 11 14 L 10 14 z M 4.5 15 C 4.223 15 4 15.223 4 15.5 L 4 17.5 C 4 17.777 4.223 18 4.5 18 L 5.5 18 C 5.777 18 6 17.777 6 17.5 L 6 15.5 C 6 15.223 5.777 15 5.5 15 L 4.5 15 z "
       transform="translate(360.00013,-308.99997)"
       id="rect6691" />
    <path
       inkscape:connector-curvature="0"
       d="m 368.00014,-297.99997 c -0.55228,0 -1,0.44772 -1,1 0,0.55228 0.44772,1 1,1 0.55228,0 1,-0.44772 1,-1 0,-0.55228 -0.44772,-1 -1,-1 z m 3,0 c -0.55228,0 -1,0.44772 -1,1 0,0.55228 0.44772,1 1,1 0.55228,0 1,-0.44772 1,-1 0,-0.55228 -0.44772,-1 -1,-1 z m 3,0 c -0.55228,0 -1,0.44772 -1,1 0,0.55228 0.44772,1 1,1 0.55228,0 1,-0.44772 1,-1 0,-0.55228 -0.44772,-1 -1,-1 z"
       id="path5112"
       style="color:#444444;fill:#ffffff;fill-opacity:1;fill-rule:nonzero;stroke:none;stroke-width:1;marker:none;visibility:visible;display:inline;overflow:visible;enable-background:accumulate" />
  </g>
  <g
     inkscape:groupmode="layer"
     id="layer10"
     inkscape:label="devices"
     style="display:inline;filter:url(#filter7554)"
     transform="translate(-360.00013,308.99997)" />
  <g
     inkscape:groupmode="layer"
     id="layer1"
     inkscape:label="places"
     style="display:inline"
     transform="translate(-118.99993,-308.00003)" />
  <g
     inkscape:groupmode="layer"
     id="layer14"
     inkscape:label="mimetypes"
     style="display:inline"
     transform="translate(-360.00013,308.99997)" />
  <g
     inkscape:groupmode="layer"
     id="layer15"
     inkscape:label="emblems"
     style="display:inline"
     transform="translate(-360.00013,308.99997)" />
  <g
     inkscape:groupmode="layer"
     id="g71291"
     inkscape:label="emotes"
     style="display:inline"
     transform="translate(-360.00013,308.99997)" />
  <g
     inkscape:groupmode="layer"
     id="layer2"
     inkscape:label="categories"
     style="display:inline"
     transform="translate(-118.99993,-158.00003)" />
  <g
     inkscape:groupmode="layer"
     id="g6058"
     inkscape:label="apps"
     style="display:inline"
     transform="translate(-118.99993,-158.00003)" />
  <g
     inkscape:groupmode="layer"
     id="layer12"
     inkscape:label="actions"
     style="display:inline"
     transform="translate(-360.00013,308.99997)" />
</svg>
