<?xml version="1.0" encoding="UTF-8" standalone="no"?>
<!-- Created with Inkscape (http://www.inkscape.org/) -->

<svg
   xmlns:dc="http://purl.org/dc/elements/1.1/"
   xmlns:cc="http://creativecommons.org/ns#"
   xmlns:rdf="http://www.w3.org/1999/02/22-rdf-syntax-ns#"
   xmlns:svg="http://www.w3.org/2000/svg"
   xmlns="http://www.w3.org/2000/svg"
   xmlns:sodipodi="http://sodipodi.sourceforge.net/DTD/sodipodi-0.dtd"
   xmlns:inkscape="http://www.inkscape.org/namespaces/inkscape"
   id="svg2"
   height="22"
   width="22"
   version="1.1"
   inkscape:version="0.48.4 r9939"
   sodipodi:docname="tomboy.svg">
  <sodipodi:namedview
     pagecolor="#000000"
     bordercolor="#666666"
     borderopacity="1"
     objecttolerance="10"
     gridtolerance="10"
     guidetolerance="10"
     inkscape:pageopacity="0.60784314"
     inkscape:pageshadow="2"
     inkscape:window-width="1364"
     inkscape:window-height="700"
     id="namedview9"
     showgrid="false"
     inkscape:zoom="1"
     inkscape:cx="11.82969"
     inkscape:cy="4.2619254"
     inkscape:window-x="0"
     inkscape:window-y="28"
     inkscape:window-maximized="1"
     inkscape:current-layer="svg2">
    <inkscape:grid
       type="xygrid"
       id="grid2988"
       empspacing="5"
       visible="true"
       enabled="true"
       snapvisiblegridlinesonly="true" />
  </sodipodi:namedview>
  <defs
     id="defs4">
    <style
       id="style3072"
       type="text/css">.fil2 {fill:#11A861}
    .fil0 {fill:#3777E3}
    .fil1 {fill:#FFCF63}</style>
  </defs>
  <metadata
     id="metadata7">
    <rdf:RDF>
      <cc:Work
         rdf:about="">
        <dc:format>image/svg+xml</dc:format>
        <dc:type
           rdf:resource="http://purl.org/dc/dcmitype/StillImage" />
        <dc:title></dc:title>
      </cc:Work>
    </rdf:RDF>
  </metadata>
  <path
     sodipodi:nodetypes="ssccccccccsscsssscccccccccccccc"
     inkscape:connector-curvature="0"
     id="path3817"
     d="m 11.00005,4 c 0.9665,0 1.78226,0.68238 1.96875,1.59375 C 12.9954,5.72395 13,5.86193 13,6 l 3.99994,0 0,13 -10.34375,0 -1.65625,0 0,-3 0,-10 L 9,6 C 9,4.89543 9.89543,4 11,4 z m 0,1 c -0.55229,0 -1,0.44772 -1,1 0,0.55228 0.44771,1 1,1 0.55229,0 1,-0.44772 1,-1 0,-0.13807 -0.0431,-0.25536 -0.0937,-0.375 C 11.75454,5.26608 11.41431,5 11.0001,5 z m 3.99994,3 -2.12494,0 c 0.0705,0.26293 0.125,0.57721 0.125,1 0,0 1,0 1,1 l -6,0 c 0,-1 1,-1 1,-1 0,-0.42279 0.0545,-0.73707 0.125,-1 l -2.12506,0 0,8 0,1 8,0 z"
     style="color:#000000;fill:#000000;fill-opacity:1;fill-rule:nonzero;stroke:none;stroke-width:4;marker:none;visibility:visible;display:inline;overflow:visible;enable-background:accumulate;opacity:0.2" />
  <path
     style="color:#000000;fill:#ffffff;fill-opacity:1;fill-rule:nonzero;stroke:none;stroke-width:4;marker:none;visibility:visible;display:inline;overflow:visible;enable-background:accumulate"
     d="m 11.00005,3 c 0.9665,0 1.78226,0.68238 1.96875,1.59375 C 12.9954,4.72395 13,4.86193 13,5 l 3.99994,0 0,13 -10.34375,0 -1.65625,0 0,-3 0,-10 L 9,5 C 9,3.89543 9.89543,3 11,3 z m 0,1 c -0.55229,0 -1,0.44772 -1,1 0,0.55228 0.44771,1 1,1 0.55229,0 1,-0.44772 1,-1 0,-0.13807 -0.0431,-0.25536 -0.0937,-0.375 C 11.75454,4.26608 11.41431,4 11.0001,4 z m 3.99994,3 -2.12494,0 c 0.0705,0.26293 0.125,0.57721 0.125,1 0,0 1,0 1,1 l -6,0 c 0,-1 1,-1 1,-1 0,-0.42279 0.0545,-0.73707 0.125,-1 l -2.12506,0 0,8 0,1 8,0 z"
     id="path3810"
     inkscape:connector-curvature="0"
     sodipodi:nodetypes="ssccccccccsscsssscccccccccccccc" />
</svg>
