<?xml version="1.0" encoding="UTF-8" standalone="no"?>
<!-- Created with Inkscape (http://www.inkscape.org/) -->

<svg
   xmlns:osb="http://www.openswatchbook.org/uri/2009/osb"
   xmlns:dc="http://purl.org/dc/elements/1.1/"
   xmlns:cc="http://creativecommons.org/ns#"
   xmlns:rdf="http://www.w3.org/1999/02/22-rdf-syntax-ns#"
   xmlns:svg="http://www.w3.org/2000/svg"
   xmlns="http://www.w3.org/2000/svg"
   xmlns:sodipodi="http://sodipodi.sourceforge.net/DTD/sodipodi-0.dtd"
   xmlns:inkscape="http://www.inkscape.org/namespaces/inkscape"
   sodipodi:docname="battery-good-charging.svg"
   inkscape:export-filename="/home/sam/img/source-symbolic.png"
   inkscape:export-xdpi="270"
   inkscape:export-ydpi="270"
   height="22"
   id="svg7384"
   style="enable-background:new"
   version="1.1"
   inkscape:version="0.48.4 r9939"
   width="22">
  <sodipodi:namedview
     inkscape:bbox-nodes="true"
     inkscape:bbox-paths="true"
     bordercolor="#666666"
     borderlayer="false"
     borderopacity="1"
     inkscape:current-layer="layer9"
     inkscape:cx="31.861967"
     inkscape:cy="15.187838"
     gridtolerance="10"
     inkscape:guide-bbox="true"
     guidetolerance="10"
     id="namedview88"
     inkscape:object-nodes="true"
     inkscape:object-paths="true"
     objecttolerance="10"
     pagecolor="#333333"
     inkscape:pageopacity="1"
     inkscape:pageshadow="2"
     showborder="true"
     showgrid="false"
     showguides="true"
     inkscape:showpageshadow="true"
     inkscape:snap-bbox="true"
     inkscape:snap-bbox-edge-midpoints="false"
     inkscape:snap-bbox-midpoints="false"
     inkscape:snap-center="false"
     inkscape:snap-global="true"
     inkscape:snap-grids="true"
     inkscape:snap-intersection-paths="true"
     inkscape:snap-midpoints="true"
     inkscape:snap-nodes="true"
     inkscape:snap-object-midpoints="true"
     inkscape:snap-others="true"
     inkscape:snap-page="false"
     inkscape:snap-smooth-nodes="true"
     inkscape:snap-to-guides="true"
     inkscape:window-height="700"
     inkscape:window-maximized="1"
     inkscape:window-width="1364"
     inkscape:window-x="0"
     inkscape:window-y="28"
     inkscape:zoom="22.627417">
    <inkscape:grid
       color="#000000"
       dotted="false"
       empcolor="#0800ff"
       empopacity="0.4627451"
       empspacing="4"
       enabled="true"
       id="grid4866"
       opacity="0.16470588"
       originx="-175.99998px"
       originy="-562px"
       snapvisiblegridlinesonly="true"
       spacingx="0.25px"
       spacingy="0.25px"
       type="xygrid"
       visible="true" />
  </sodipodi:namedview>
  <metadata
     id="metadata90">
    <rdf:RDF>
      <cc:Work
         rdf:about="">
        <dc:format>image/svg+xml</dc:format>
        <dc:type
           rdf:resource="http://purl.org/dc/dcmitype/StillImage" />
        <dc:title>Moka Symbolic Icon Theme</dc:title>
      </cc:Work>
    </rdf:RDF>
  </metadata>
  <title
     id="title8473">Moka Symbolic Icon Theme</title>
  <defs
     id="defs7386">
    <linearGradient
       id="linearGradient5606"
       osb:paint="solid">
      <stop
         id="stop5608"
         offset="0"
         style="stop-color:#000000;stop-opacity:1;" />
    </linearGradient>
    <filter
       inkscape:collect="always"
       color-interpolation-filters="sRGB"
       id="filter7554">
      <feBlend
         inkscape:collect="always"
         id="feBlend7556"
         in2="BackgroundImage"
         mode="darken" />
    </filter>
  </defs>
  <g
     inkscape:groupmode="layer"
     id="layer9"
     inkscape:label="status"
     style="display:inline"
     transform="translate(-417.00018,351)">
    <path
       style="opacity:0.2;fill:#000000;fill-opacity:1;stroke:none;display:inline;enable-background:new"
       id="path4933"
       d="m 425.00018,-340 0,1.09375 0.65625,-1.09375 -0.65625,0 z m 6,2.90625 -1.84375,3.09375 1.84375,0 0,-3.09375 z m -6,1.09375 0,2 2,0 0,-2 -2,0 z"
       inkscape:connector-curvature="0" />
    <path
       style="opacity:0.2;fill:#000000;fill-opacity:1;stroke:none;display:inline;enable-background:new"
       sodipodi:nodetypes="ccccccc"
       id="path4937"
       d="m 428.00018,-342 0,3 3,0 -3,5 0,-3 -3,0 z"
       inkscape:connector-curvature="0" />
    <path
       style="opacity:0.2;fill:#000000;fill-opacity:1;stroke:none;display:inline;enable-background:new"
       sodipodi:nodetypes="ccccccsscsccsccccccc"
       id="path4935"
       d="m 426.00018,-346 0,1 4,0 0,-1 z m -2.15625,2 c -0.28125,0.0469 -0.84375,0.25 -0.84375,1 l 0,10 c 0,1 1,1 1,1 l 8,0 c 1,0 1,-1 1,-1 l 0,-10 c 0,0 0,-1 -1,-1 l -8,0 c 0,0 -0.0625,-0.0156 -0.15625,0 z m 0.15625,1 8,0 0,10 -8,0 z"
       inkscape:connector-curvature="0" />
    <path
       inkscape:connector-curvature="0"
       d="m 425.00018,-343 0,3.09375 1.84375,-3.09375 z m 4,0 0,2 2,0 0,-2 z m 2,4.90625 -1.84375,3.09375 1.84375,0 z m -6,1.09375 0,2 2,0 0,-2 z"
       id="path7890"
       sodipodi:nodetypes="cccccccccccccccccc"
       style="opacity:0.34999999999999998;fill:#ffffff;fill-opacity:1;stroke:none;display:inline;enable-background:new" />
    <path
       inkscape:connector-curvature="0"
       d="m 425.00018,-341 0,1.09375 0.65625,-1.09375 -0.65625,0 z m 6,2.90625 -1.84375,3.09375 1.84375,0 0,-3.09375 z m -6,1.09375 0,2 2,0 0,-2 -2,0 z"
       id="path7880"
       style="fill:#ffffff;fill-opacity:1;stroke:none;display:inline;enable-background:new" />
    <path
       inkscape:connector-curvature="0"
       d="m 426.00018,-347 0,1 4,0 0,-1 z m -2.15625,2 c -0.28125,0.0469 -0.84375,0.25 -0.84375,1 l 0,10 c 0,1 1,1 1,1 l 8,0 c 1,0 1,-1 1,-1 l 0,-10 c 0,0 0,-1 -1,-1 l -8,0 c 0,0 -0.0625,-0.0156 -0.15625,0 z m 0.15625,1 8,0 0,10 -8,0 z"
       id="path7884"
       sodipodi:nodetypes="ccccccsscsccsccccccc"
       style="fill:#ffffff;fill-opacity:1;stroke:none;display:inline;enable-background:new" />
    <path
       inkscape:connector-curvature="0"
       d="m 428.00018,-343 0,3 3,0 -3,5 0,-3 -3,0 z"
       id="path7886"
       sodipodi:nodetypes="ccccccc"
       style="fill:#ffffff;fill-opacity:1;stroke:none;display:inline;enable-background:new" />
  </g>
  <g
     inkscape:groupmode="layer"
     id="layer10"
     inkscape:label="devices"
     style="display:inline;filter:url(#filter7554)"
     transform="translate(-417.00018,351)" />
  <g
     inkscape:groupmode="layer"
     id="layer1"
     inkscape:label="places"
     style="display:inline"
     transform="translate(-175.99998,-266)" />
  <g
     inkscape:groupmode="layer"
     id="layer14"
     inkscape:label="mimetypes"
     style="display:inline"
     transform="translate(-417.00018,351)" />
  <g
     inkscape:groupmode="layer"
     id="layer15"
     inkscape:label="emblems"
     style="display:inline"
     transform="translate(-417.00018,351)" />
  <g
     inkscape:groupmode="layer"
     id="g71291"
     inkscape:label="emotes"
     style="display:inline"
     transform="translate(-417.00018,351)" />
  <g
     inkscape:groupmode="layer"
     id="layer2"
     inkscape:label="categories"
     style="display:inline"
     transform="translate(-175.99998,-116)" />
  <g
     inkscape:groupmode="layer"
     id="g6058"
     inkscape:label="apps"
     style="display:inline"
     transform="translate(-175.99998,-116)" />
  <g
     inkscape:groupmode="layer"
     id="layer12"
     inkscape:label="actions"
     style="display:inline"
     transform="translate(-417.00018,351)" />
</svg>
