<?xml version="1.0" encoding="UTF-8" standalone="no"?>
<!-- Created with Inkscape (http://www.inkscape.org/) -->

<svg
   xmlns:osb="http://www.openswatchbook.org/uri/2009/osb"
   xmlns:dc="http://purl.org/dc/elements/1.1/"
   xmlns:cc="http://creativecommons.org/ns#"
   xmlns:rdf="http://www.w3.org/1999/02/22-rdf-syntax-ns#"
   xmlns:svg="http://www.w3.org/2000/svg"
   xmlns="http://www.w3.org/2000/svg"
   xmlns:sodipodi="http://sodipodi.sourceforge.net/DTD/sodipodi-0.dtd"
   xmlns:inkscape="http://www.inkscape.org/namespaces/inkscape"
   sodipodi:docname="network-wireless-secure-signal-none.svg"
   inkscape:export-filename="/home/sam/img/source-symbolic.png"
   inkscape:export-xdpi="270"
   inkscape:export-ydpi="270"
   height="24"
   id="svg7384"
   style="enable-background:new"
   version="1.1"
   inkscape:version="0.48.4 r9939"
   width="24">
  <sodipodi:namedview
     inkscape:bbox-nodes="true"
     inkscape:bbox-paths="true"
     bordercolor="#666666"
     borderlayer="false"
     borderopacity="1"
     inkscape:current-layer="layer9"
     inkscape:cx="10.899041"
     inkscape:cy="5.3052344"
     gridtolerance="10"
     inkscape:guide-bbox="true"
     guidetolerance="10"
     id="namedview88"
     inkscape:object-nodes="true"
     inkscape:object-paths="true"
     objecttolerance="10"
     pagecolor="#333333"
     inkscape:pageopacity="1"
     inkscape:pageshadow="2"
     showborder="true"
     showgrid="true"
     showguides="true"
     inkscape:showpageshadow="true"
     inkscape:snap-bbox="true"
     inkscape:snap-bbox-edge-midpoints="false"
     inkscape:snap-bbox-midpoints="false"
     inkscape:snap-center="false"
     inkscape:snap-global="true"
     inkscape:snap-grids="true"
     inkscape:snap-intersection-paths="true"
     inkscape:snap-midpoints="true"
     inkscape:snap-nodes="true"
     inkscape:snap-object-midpoints="true"
     inkscape:snap-others="true"
     inkscape:snap-page="false"
     inkscape:snap-smooth-nodes="true"
     inkscape:snap-to-guides="true"
     inkscape:window-height="700"
     inkscape:window-maximized="1"
     inkscape:window-width="1364"
     inkscape:window-x="0"
     inkscape:window-y="28"
     inkscape:zoom="1">
    <inkscape:grid
       color="#000000"
       dotted="false"
       empcolor="#0800ff"
       empopacity="0.4627451"
       empspacing="4"
       enabled="true"
       id="grid4866"
       opacity="0.16470588"
       originx="-99.968766px"
       originy="-620px"
       snapvisiblegridlinesonly="true"
       spacingx="0.25px"
       spacingy="0.25px"
       type="xygrid"
       visible="true" />
  </sodipodi:namedview>
  <metadata
     id="metadata90">
    <rdf:RDF>
      <cc:Work
         rdf:about="">
        <dc:format>image/svg+xml</dc:format>
        <dc:type
           rdf:resource="http://purl.org/dc/dcmitype/StillImage" />
        <dc:title>Moka Symbolic Icon Theme</dc:title>
      </cc:Work>
    </rdf:RDF>
  </metadata>
  <title
     id="title8473">Moka Symbolic Icon Theme</title>
  <defs
     id="defs7386">
    <linearGradient
       id="linearGradient5606"
       osb:paint="solid">
      <stop
         id="stop5608"
         offset="0"
         style="stop-color:#000000;stop-opacity:1;" />
    </linearGradient>
    <filter
       inkscape:collect="always"
       color-interpolation-filters="sRGB"
       id="filter7554">
      <feBlend
         inkscape:collect="always"
         id="feBlend7556"
         in2="BackgroundImage"
         mode="darken" />
    </filter>
  </defs>
  <g
     inkscape:groupmode="layer"
     id="layer9"
     inkscape:label="status"
     style="display:inline"
     transform="translate(-340.96897,405)">
    <path
       style="opacity:0.2;color:#000000;fill:#000000;fill-opacity:1;fill-rule:nonzero;stroke:none;stroke-width:1;marker:none;visibility:visible;display:inline;overflow:visible;enable-background:accumulate"
       d="m 353.00022,-398 c -3.03435,0 -5.76588,1.07815 -8.03125,2.75 l 8.03125,8.75 1,-1.09375 0,-0.40625 0,-1 1,0 c 0.0168,-1.63737 1.35439,-3 3,-3 l 2.96875,-3.28125 C 358.71236,-396.93454 356.01127,-398 353.00022,-398 z m -0.0625,1 c 2.39362,0 4.52424,0.83638 6.4375,2.03125 l -6.4375,7 -6.375,-7.03125 c 1.90092,-1.17864 4.00536,-2 6.375,-2 z"
       id="path3909"
       inkscape:connector-curvature="0" />
    <path
       style="color:#000000;fill:#ffffff;fill-opacity:1;fill-rule:nonzero;stroke:none;stroke-width:1;marker:none;visibility:visible;display:inline;overflow:visible;enable-background:accumulate"
       d="m 353.00022,-399 c -3.03435,0 -5.76588,1.07815 -8.03125,2.75 l 8.03125,8.75 1,-1.09375 0,-0.40625 0,-1 1,0 c 0.0168,-1.63737 1.35439,-3 3,-3 l 2.96875,-3.28125 C 358.71236,-397.93454 356.01127,-399 353.00022,-399 z m -0.0625,1 c 2.39362,0 4.52424,0.83638 6.4375,2.03125 l -6.4375,7 -6.375,-7.03125 c 1.90092,-1.17864 4.00536,-2 6.375,-2 z"
       id="path7616"
       inkscape:connector-curvature="0" />
    <path
       inkscape:connector-curvature="0"
       style="opacity:0.2;fill:#000000;fill-opacity:1;fill-rule:nonzero;stroke:none;display:inline;enable-background:new"
       d="m 358.0002,-390.99999 c -1.108,0 -2,0.91081 -2,2.03125 l 0,0.96875 -1,0 0,1 0,2 0,1 1,0 4,0 1,0 0,-1 0,-2 0,-1 -1,0 0,-0.96875 c 0,-1.12 -0.892,-2.03125 -2,-2.03125 z m 0,1 c 0.554,0 1,0.44236 1,1 l 0,1 -2,0 0,-1 c 0,-0.55764 0.446,-1 1,-1 z"
       id="path3947"
       sodipodi:nodetypes="ssccccccccccccssssccss" />
    <path
       sodipodi:nodetypes="ssccccccccccccssssccss"
       id="path3949"
       d="m 358.0002,-392 c -1.108,0 -2,0.91081 -2,2.03125 l 0,0.96875 -1,0 0,1 0,2 0,1 1,0 4,0 1,0 0,-1 0,-2 0,-1 -1,0 0,-0.96875 c 0,-1.12 -0.892,-2.03125 -2,-2.03125 z m 0,1 c 0.554,0 1,0.44236 1,1 l 0,1 -2,0 0,-1 c 0,-0.55764 0.446,-1 1,-1 z"
       style="fill:#ffffff;fill-opacity:1;fill-rule:nonzero;stroke:none;display:inline;enable-background:new"
       inkscape:connector-curvature="0" />
  </g>
  <g
     inkscape:groupmode="layer"
     id="layer10"
     inkscape:label="devices"
     style="display:inline;filter:url(#filter7554)"
     transform="translate(-340.96897,405)" />
  <g
     inkscape:groupmode="layer"
     id="layer1"
     inkscape:label="places"
     style="display:inline"
     transform="translate(-99.968766,-212)" />
  <g
     inkscape:groupmode="layer"
     id="layer14"
     inkscape:label="mimetypes"
     style="display:inline"
     transform="translate(-340.96897,405)" />
  <g
     inkscape:groupmode="layer"
     id="layer15"
     inkscape:label="emblems"
     style="display:inline"
     transform="translate(-340.96897,405)" />
  <g
     inkscape:groupmode="layer"
     id="g71291"
     inkscape:label="emotes"
     style="display:inline"
     transform="translate(-340.96897,405)" />
  <g
     inkscape:groupmode="layer"
     id="layer2"
     inkscape:label="categories"
     style="display:inline"
     transform="translate(-99.968766,-62)" />
  <g
     inkscape:groupmode="layer"
     id="g6058"
     inkscape:label="apps"
     style="display:inline"
     transform="translate(-99.968766,-62)" />
  <g
     inkscape:groupmode="layer"
     id="layer12"
     inkscape:label="actions"
     style="display:inline"
     transform="translate(-340.96897,405)" />
</svg>
